<svg width="627" height="608" viewBox="0 0 627 608" fill="none" xmlns="http://www.w3.org/2000/svg">
<path d="M68.665 281.897C68.5279 281.899 68.3924 281.866 68.2715 281.802C68.1451 281.738 68.0375 281.642 67.9595 281.523C60.5102 270.218 54.7295 257.898 50.7957 244.944C44.5542 224.705 43.12 203.29 46.6072 182.4C50.0944 161.51 58.4067 141.721 70.8834 124.607C78.7333 113.726 88.0998 104.023 98.6982 95.7952C98.8781 95.6581 99.1047 95.5971 99.3292 95.6256C99.4394 95.6398 99.5457 95.6757 99.642 95.7313C99.7383 95.7868 99.8226 95.8608 99.8901 95.9492C99.9576 96.0375 100.007 96.1383 100.035 96.2458C100.064 96.3533 100.07 96.4653 100.055 96.5754C100.042 96.6865 100.006 96.7938 99.9504 96.8906C99.8944 96.9874 99.8192 97.0718 99.7294 97.1385C89.255 105.277 79.9982 114.872 72.2402 125.632C59.9134 142.534 51.7008 162.079 48.256 182.713C44.8111 203.347 46.229 224.5 52.3967 244.489C56.2869 257.283 61.9989 269.449 69.357 280.614C69.4817 280.802 69.5279 281.031 69.4859 281.252C69.4649 281.361 69.4223 281.465 69.3605 281.557C69.2987 281.649 69.2191 281.727 69.1263 281.788C69.057 281.839 68.9787 281.875 68.8957 281.897C68.8192 281.908 68.7415 281.908 68.665 281.897Z" fill="#666538"/>
<path d="M83.9834 605.831C131.893 605.442 179.802 605.249 227.711 605.254C275.621 605.258 323.53 605.451 371.439 605.831C397.499 606.034 423.552 606.296 449.599 606.618C475.645 606.939 501.696 607.316 527.752 607.75C526.373 573.971 523.223 540.287 518.315 506.837C512.249 465.527 503.458 424.663 491.999 384.513C485.073 360.28 464.096 286.822 434.477 218.852C404.858 150.882 366.636 88.4481 325.165 86.2636C302.011 85.0492 270.478 102.24 230.35 176.092C190.222 249.944 141.492 380.442 83.9834 605.831Z" fill="#353519"/>
<path d="M72.8845 319.63H72.8031H72.7217C70.7272 327.533 67.9728 335.233 65.1642 342.886C62.3556 350.538 59.513 358.15 57.3693 366.033C55.0823 373.939 53.846 382.112 53.6923 390.341C53.6448 398.482 55.0152 406.548 58.4886 413.929C60.1606 417.472 62.286 420.784 64.8114 423.779C67.3327 426.782 70.2151 429.462 73.3933 431.758C76.2833 433.84 79.8925 435.299 83.2845 437.008C86.6766 438.718 89.8312 440.685 91.8257 443.793C98.0739 453.568 94.3698 462.272 88.0809 470.352C81.792 478.432 72.9184 485.888 68.8208 493.181C65.7341 498.676 64.072 504.978 63.3936 511.43C62.7696 517.801 62.7696 524.217 63.3936 530.588C63.894 536.146 64.7254 541.669 65.8833 547.128C67.0298 552.596 68.4545 557.983 70.0555 563.335C70.354 564.339 71.1139 566.87 72.3011 570.445C73.4883 574.02 75.1233 578.633 77.1721 583.789C79.2209 588.945 81.5682 594.359 83.4474 598.599C85.3265 602.839 86.7105 605.824 86.7105 605.824H96.1268H105.543C105.543 605.824 100.116 595.736 94.2476 581.401C88.3794 567.066 82.0363 548.444 80.1231 531.416C79.4013 524.908 80.0294 518.322 81.9684 512.068C83.84 505.953 86.9973 500.309 91.2287 495.515C96.9613 489.07 102.992 481.865 107.198 473.982C111.405 466.099 113.779 457.517 112.212 448.331C110.589 439.049 105.495 430.733 97.9653 425.068C94.9057 422.789 91.4865 420.998 88.1691 419.058C84.8517 417.118 81.6496 415.082 79.0173 412.321C76.7976 409.978 75.0167 407.255 73.7597 404.282C72.5145 401.323 71.6594 398.215 71.2156 395.035C70.4123 388.937 70.6232 382.748 71.8398 376.718C73.0617 370.626 74.777 364.643 76.9685 358.828C79.0784 353.015 81.4189 347.262 83.5084 341.441C85.6737 335.66 87.3419 329.704 88.4947 323.639L80.693 321.604L72.8845 319.63Z" fill="#BAB653"/>
<path d="M69.004 331.651L73.719 343.259L78.4679 354.86C78.4679 354.86 80.3063 350.158 82.1923 345.111C84.0783 340.064 86.0253 334.663 86.2628 333.266L82.6604 326.638L79.0581 320.003L74.065 325.831L69.004 331.651Z" fill="#353519"/>
<path d="M56.6436 282.846C53.3278 282.677 50.0327 283.459 47.1458 285.099C44.3273 286.688 42.0584 289.097 40.6399 292.005C39.1674 295.111 38.6571 298.586 39.1745 301.984C39.6441 305.496 41.4737 308.682 44.2694 310.858C46.3422 312.417 48.8142 313.358 51.3995 313.572C54.119 313.784 56.8488 313.318 59.3437 312.215C55.8757 313.739 53.0742 316.463 51.4537 319.888C49.8447 323.235 49.5258 327.059 50.5582 330.627C51.6283 334.188 53.9546 337.24 57.1049 339.215C60.1551 341.195 63.8402 341.951 67.4235 341.332C70.6813 340.674 73.6067 338.899 75.6933 336.312C76.8234 334.98 77.7556 333.493 78.4612 331.895C79.0396 333.794 79.8897 335.599 80.9849 337.255C82.9985 340.435 86.0129 342.855 89.5532 344.134C93.0441 345.314 96.8152 345.383 100.347 344.331C103.923 343.337 107.017 341.081 109.058 337.981C110.465 335.724 111.252 333.136 111.337 330.478C111.399 328.883 111.255 327.287 110.91 325.729C113.462 328.774 116.757 331.111 120.475 332.513C123.892 333.814 127.632 334.011 131.167 333.076C132.864 332.608 134.486 331.899 135.984 330.973C138.611 329.391 140.632 326.974 141.723 324.107C142.82 321.036 142.82 317.68 141.723 314.609C141.193 313.007 140.43 311.491 139.457 310.112C143.278 311.32 147.408 311.091 151.071 309.467C154.55 307.96 157.316 305.174 158.799 301.686C160.121 298.357 160.136 294.652 158.839 291.313C157.662 288.132 155.574 285.369 152.835 283.369C150.931 282.02 148.75 281.112 146.451 280.709C145.002 280.447 143.525 280.367 142.055 280.472C143.479 279.444 144.765 278.238 145.882 276.883C147.622 274.823 148.775 272.332 149.219 269.672C149.898 265.072 148.215 260.276 145.149 256.538C142.083 252.8 137.564 250.14 132.693 249.815C129.042 249.634 125.431 250.648 122.409 252.705C120.687 253.824 119.128 255.176 117.775 256.721C117.93 254.68 117.822 252.628 117.456 250.615C116.938 247.549 115.575 244.688 113.521 242.352C109.688 238.139 103.535 236.246 97.4906 236.667C91.446 237.088 85.5099 239.693 82.1179 244.475C80.1135 247.382 79.0243 250.822 78.9904 254.353C78.9291 256.544 79.1573 258.734 79.6688 260.866C77.5309 258.039 74.6919 255.82 71.4329 254.428C68.3424 253.095 64.9243 252.714 61.6163 253.336C57.1446 254.308 53.1924 256.904 50.5243 260.622C47.8853 264.244 46.6167 268.681 47.6343 272.833C48.38 275.638 49.9862 278.139 52.2271 279.983C53.567 281.128 55.0519 282.09 56.6436 282.846Z" fill="#DEB8FC"/>
<path d="M86.8598 281.985C84.2173 281.151 81.4218 280.919 78.6781 281.306C77.3023 281.494 75.9835 281.978 74.8124 282.724C73.6413 283.47 72.6457 284.46 71.894 285.628C69.6214 289.169 70.2116 293.09 72.3282 296.035C73.4036 297.559 74.8506 298.782 76.5319 299.59C78.2131 300.397 80.0729 300.761 81.9345 300.648C81.7378 300.648 81.4257 301.096 81.1476 301.564C80.8694 302.032 80.6048 302.52 80.5234 302.663C79.8384 303.784 79.3978 305.038 79.2307 306.341C79.0635 307.645 79.1734 308.969 79.5533 310.227C79.9512 311.479 80.6219 312.626 81.5171 313.587C82.4122 314.548 83.5094 315.298 84.7296 315.783C87.199 316.808 90.0619 316.38 92.5923 315.166C95.0645 314.002 97.12 312.108 98.4809 309.739C99.0638 308.559 99.5625 307.339 99.9734 306.089C100.394 304.868 100.693 303.884 100.693 303.884C103.047 306.638 104.478 308.178 105.326 309.026C105.663 309.394 106.031 309.732 106.425 310.037C107.459 310.659 108.572 311.136 109.736 311.455C111.958 312.125 114.337 312.06 116.52 311.272C117.085 311.057 117.63 310.791 118.148 310.478C118.689 310.152 119.198 309.775 119.668 309.352C121.545 307.655 122.777 305.361 123.155 302.86C123.381 301.627 123.331 300.36 123.009 299.149C122.686 297.939 122.099 296.815 121.289 295.858C120.563 295.094 119.771 294.394 118.921 293.769C118.107 293.158 117.456 292.711 117.456 292.711L118.399 292.249L119.233 291.829C120.457 291.187 121.541 290.307 122.42 289.241C123.3 288.175 123.958 286.945 124.355 285.621C124.789 284.294 124.945 282.893 124.816 281.503C124.686 280.114 124.273 278.765 123.602 277.541C122.776 276.084 121.569 274.878 120.112 274.052C118.655 273.225 117.001 272.809 115.326 272.847C113.643 272.84 111.978 273.193 110.442 273.881C108.906 274.568 107.534 275.576 106.418 276.836C106.461 276.271 106.461 275.704 106.418 275.14C106.372 274.398 106.247 273.664 106.045 272.948C105.453 270.906 104.273 269.082 102.653 267.704C101.819 266.962 100.888 266.337 99.8852 265.846C97.9077 264.939 95.7315 264.551 93.5625 264.719C91.2361 264.847 89.0342 265.811 87.3618 267.433C85.9617 268.884 85.0324 270.723 84.6956 272.711C84.4991 273.727 84.442 274.766 84.526 275.798C84.5872 276.402 84.7053 277 84.8788 277.582C85.0143 278.045 85.1798 278.498 85.3741 278.939C85.469 279.197 85.7065 279.916 85.9846 280.594C86.2628 281.273 86.5884 281.91 86.8598 281.985Z" fill="#255FA2"/>
<path d="M84.3022 605.831C83.7866 601.367 81.5478 579.135 87.1854 550.662C92.823 522.19 106.317 487.489 137.266 458.093C158.18 438.282 183.593 423.848 211.321 416.032C238.912 408.284 268.389 407.375 296.692 415.021C334.683 425.285 367.518 450.142 390.258 483.853C412.999 517.563 425.685 560.133 423.446 605.81H84.3022V605.831Z" fill="#353519"/>
<path d="M84.1464 605.831H527.752C531.762 591.852 534.041 577.434 534.536 562.901C535.14 543.749 532.541 520.873 522.128 497.685C506.748 463.439 477.936 436.561 443.595 420.652C409.254 404.743 369.377 399.797 331.881 409.411C292.364 419.546 264.671 443.494 246.402 466.044C228.132 488.595 219.265 509.761 217.434 514.327C204.196 470.081 191.722 437.065 180.012 415.279C168.303 393.493 157.345 382.948 147.137 383.645C134.202 384.517 122.486 403.468 111.988 440.495C101.491 477.523 92.2104 532.635 84.1464 605.831Z" fill="#666538"/>
<path d="M305.837 484.266L289.555 544.869L273.273 605.464H347.403L331.121 544.869L314.839 484.266C314.571 483.274 313.982 482.397 313.166 481.772C312.349 481.148 311.35 480.809 310.321 480.809C309.293 480.809 308.293 481.148 307.477 481.772C306.66 482.397 306.072 483.274 305.803 484.266H305.837Z" fill="#255FA2"/>
<path d="M148.215 552.087L141.004 578.959L133.792 605.831H167.882L160.671 578.959L153.459 552.087C153.305 551.509 152.965 550.999 152.491 550.634C152.016 550.27 151.435 550.072 150.837 550.072C150.239 550.072 149.658 550.27 149.184 550.634C148.71 550.999 148.369 551.509 148.215 552.087Z" fill="#255FA2"/>
<path d="M202.23 605.831H181.919H161.607L169.877 416.758L178.147 227.685H181.919H185.691L193.96 416.758L202.23 605.831Z" fill="#F4ECE5"/>
<path d="M371.439 605.831H352.729H334.025L341.447 474.273L348.862 342.723H352.634H356.406L363.922 474.273L371.439 605.831Z" fill="#F4ECE5"/>
<path d="M437.896 290.065C437.716 290.063 437.541 290.005 437.396 289.897C437.251 289.79 437.143 289.64 437.089 289.468C434.331 280.822 430.314 272.63 425.169 265.154C416.759 252.806 405.332 242.814 391.973 236.125C378.614 229.437 363.767 226.275 348.841 226.939C339.495 227.276 330.251 229.014 321.42 232.095C321.262 232.153 321.09 232.163 320.926 232.123C320.763 232.083 320.615 231.995 320.501 231.87C320.388 231.746 320.314 231.59 320.289 231.424C320.264 231.257 320.289 231.087 320.362 230.935C320.459 230.732 320.632 230.576 320.843 230.5C329.841 227.362 339.258 225.592 348.78 225.25C363.991 224.57 379.122 227.791 392.736 234.607C406.351 241.423 417.997 251.606 426.567 264.19C431.808 271.804 435.9 280.147 438.71 288.952C438.776 289.166 438.755 289.398 438.651 289.596C438.546 289.794 438.368 289.943 438.154 290.011L438.025 290.045L437.896 290.065Z" fill="#666538"/>
<path d="M198.831 605.831C191.871 594.644 189.727 582.765 191.525 572.222C193.323 561.68 199.062 552.548 207.888 546.741C214.639 542.514 222.29 539.935 230.222 539.211C238.776 538.403 247.86 539.747 255.669 544.638C261.937 548.529 266.702 554.428 269.189 561.374C270.536 564.986 271.292 568.791 271.428 572.643C277.725 570.901 284.423 571.314 290.458 573.816C295.932 576.157 300.118 580.146 301.733 584.915C302.909 588.603 302.667 592.597 301.054 596.116C299.25 600.108 296.325 603.49 292.635 605.851H198.831V605.831Z" fill="#E9CF81"/>
<path d="M471.932 606.591C471.871 606.597 471.81 606.597 471.749 606.591C471.688 606.577 471.629 606.557 471.573 606.529C471.471 606.482 471.38 606.415 471.304 606.333C471.228 606.25 471.17 606.153 471.132 606.048C471.091 605.938 471.074 605.822 471.08 605.705C471.085 605.589 471.115 605.474 471.166 605.369L524.997 491.654L578.822 377.926C578.92 377.724 579.093 377.568 579.304 377.491C579.411 377.444 579.527 377.42 579.643 377.42C579.76 377.42 579.876 377.444 579.983 377.491C580.184 377.589 580.34 377.762 580.417 377.973C580.46 378.082 580.479 378.199 580.473 378.316C580.467 378.433 580.437 378.547 580.383 378.652L526.531 492.38L472.699 606.109C472.628 606.254 472.518 606.377 472.38 606.462C472.245 606.544 472.09 606.588 471.932 606.591Z" fill="#666538"/>
<path d="M471.932 606.591H471.769C471.659 606.57 471.554 606.528 471.46 606.467C471.366 606.406 471.285 606.326 471.222 606.234C471.159 606.141 471.115 606.036 471.092 605.927C471.07 605.817 471.069 605.703 471.091 605.593L503.152 442.775L535.207 279.956C535.228 279.847 535.271 279.742 535.333 279.649C535.395 279.556 535.474 279.476 535.567 279.414C535.755 279.291 535.984 279.247 536.205 279.292C536.314 279.311 536.418 279.353 536.511 279.414C536.603 279.476 536.681 279.557 536.74 279.651C536.803 279.742 536.847 279.845 536.869 279.953C536.892 280.062 536.892 280.174 536.869 280.282L504.814 443.1L472.76 605.919C472.72 606.111 472.616 606.284 472.464 606.407C472.312 606.531 472.121 606.598 471.925 606.597L471.932 606.591Z" fill="#666538"/>
<path d="M609.982 228.519C610.333 241.958 606.014 255.104 597.76 265.715C589.507 276.327 577.83 283.749 564.718 286.717C551.606 289.684 537.87 288.014 525.852 281.991C513.833 275.968 504.274 265.964 498.804 253.683C493.334 241.403 492.291 227.606 495.853 214.642C499.414 201.679 507.36 190.352 518.337 182.59C529.313 174.828 542.641 171.112 556.05 172.074C569.459 173.037 582.12 178.619 591.875 187.869C597.424 193.116 601.881 199.409 604.988 206.386C608.096 213.362 609.793 220.885 609.982 228.519Z" fill="#F4ECE5"/>
<path d="M626.257 366.644C626.477 374.89 623.831 382.958 618.77 389.472C613.709 395.987 606.545 400.545 598.5 402.37C590.455 404.194 582.026 403.173 574.649 399.48C567.272 395.787 561.404 389.65 558.045 382.115C554.686 374.581 554.043 366.114 556.227 358.159C558.41 350.203 563.284 343.251 570.019 338.487C576.753 333.722 584.931 331.44 593.16 332.03C601.388 332.619 609.158 336.043 615.145 341.719C618.546 344.938 621.278 348.796 623.185 353.074C625.092 357.351 626.136 361.962 626.257 366.644Z" fill="#F4ECE5"/>
<path d="M594.751 228.35C591.646 228.311 588.641 227.247 586.203 225.324C583.631 223.333 581.736 220.596 580.776 217.488C577.721 219.136 574.26 219.882 570.797 219.639C567.524 219.426 564.413 218.141 561.943 215.982C559.927 214.146 558.466 211.782 557.724 209.158C557.239 207.526 556.988 205.833 556.977 204.131C556.978 204.019 557 203.909 557.043 203.807C557.086 203.704 557.149 203.612 557.228 203.534C557.388 203.378 557.602 203.29 557.825 203.289C557.937 203.29 558.047 203.312 558.149 203.355C558.252 203.398 558.345 203.461 558.422 203.54C558.501 203.618 558.564 203.711 558.606 203.814C558.648 203.916 558.668 204.026 558.667 204.137C558.684 205.663 558.912 207.179 559.345 208.642C559.996 210.987 561.291 213.102 563.083 214.748C565.419 216.772 568.385 217.925 571.475 218.011C574.79 218.127 578.066 217.256 580.885 215.507L581.387 215.195L581.895 214.89L582.024 215.467L582.153 216.043C582.931 219.441 584.942 222.43 587.798 224.429C589.126 225.388 590.639 226.061 592.242 226.404C593.844 226.748 595.5 226.754 597.105 226.423C599.629 225.818 601.876 224.385 603.489 222.353C605.216 220.231 606.278 217.647 606.542 214.924C606.553 214.806 606.589 214.692 606.647 214.589C606.706 214.486 606.786 214.397 606.881 214.327C607.056 214.186 607.28 214.12 607.503 214.143C607.727 214.166 607.932 214.276 608.075 214.449C608.217 214.622 608.285 214.844 608.265 215.066C607.964 218.144 606.755 221.063 604.792 223.452C602.936 225.741 600.374 227.349 597.506 228.024C596.615 228.222 595.705 228.322 594.792 228.323L594.751 228.35Z" fill="#DEB8FC"/>
<path d="M520.798 255.33C519.34 255.316 517.915 254.898 516.68 254.123C515.906 253.65 515.202 253.07 514.591 252.4C514.517 252.316 514.46 252.218 514.424 252.112C514.388 252.006 514.373 251.894 514.38 251.782C514.384 251.671 514.411 251.562 514.458 251.461C514.506 251.361 514.574 251.272 514.658 251.199C514.741 251.125 514.838 251.068 514.943 251.032C515.047 250.996 515.158 250.981 515.269 250.988C515.381 250.992 515.491 251.018 515.593 251.066C515.695 251.114 515.785 251.182 515.859 251.267C516.349 251.807 516.913 252.276 517.535 252.657C518.51 253.282 519.64 253.62 520.798 253.634C522.294 253.61 523.734 253.063 524.869 252.087C526.095 251.051 526.987 249.675 527.433 248.132L527.603 247.569L527.765 246.999L528.247 247.339L528.735 247.685C530.102 248.642 531.773 249.062 533.43 248.865C534.208 248.782 534.96 248.539 535.639 248.15C536.317 247.761 536.907 247.235 537.372 246.606C538.073 245.589 538.412 244.365 538.335 243.132C538.265 241.825 537.812 240.568 537.032 239.517C536.965 239.427 536.917 239.325 536.89 239.217C536.863 239.109 536.858 238.996 536.876 238.886C536.911 238.664 537.03 238.464 537.209 238.329C537.392 238.199 537.617 238.144 537.84 238.173C538.063 238.208 538.263 238.33 538.396 238.512C539.386 239.851 539.953 241.455 540.024 243.119C540.11 244.707 539.663 246.277 538.756 247.583C537.665 249.081 536.04 250.104 534.217 250.439C532.339 250.809 530.391 250.526 528.695 249.638C528.016 251.275 526.902 252.695 525.472 253.743C524.126 254.752 522.494 255.308 520.812 255.33H520.771H520.798Z" fill="#DEB8FC"/>
<path d="M609.025 394.52C608.713 394.52 608.408 394.52 608.096 394.472C607.786 394.439 607.478 394.389 607.173 394.323C604.747 393.769 602.635 392.286 601.291 390.191C599.867 388.037 599.236 385.454 599.507 382.885C597.106 382.976 594.727 382.398 592.635 381.216C590.656 380.106 589.086 378.388 588.157 376.318C587.409 374.537 587.174 372.581 587.479 370.674C587.649 369.482 587.99 368.322 588.49 367.227C588.535 367.125 588.6 367.034 588.682 366.958C588.763 366.882 588.86 366.824 588.964 366.786C589.072 366.741 589.187 366.717 589.304 366.717C589.42 366.717 589.536 366.741 589.643 366.786C589.744 366.833 589.835 366.899 589.91 366.981C589.986 367.063 590.045 367.159 590.083 367.264C590.122 367.368 590.139 367.479 590.135 367.591C590.13 367.702 590.104 367.811 590.057 367.912C589.63 368.846 589.337 369.835 589.188 370.85C588.932 372.455 589.129 374.1 589.758 375.599C590.617 377.496 592.109 379.036 593.978 379.954C595.978 380.957 598.23 381.345 600.45 381.067L601.033 380.999L601.624 380.931L601.501 381.508L601.379 382.084C600.896 384.375 601.28 386.764 602.458 388.787C602.999 389.744 603.732 390.579 604.611 391.239C605.49 391.898 606.496 392.369 607.566 392.62C609.266 392.96 611.031 392.721 612.58 391.942C614.229 391.131 615.602 389.852 616.528 388.265C616.583 388.168 616.657 388.083 616.746 388.015C616.835 387.948 616.936 387.899 617.044 387.871C617.157 387.839 617.275 387.831 617.392 387.846C617.509 387.861 617.621 387.9 617.722 387.959C617.915 388.077 618.056 388.264 618.116 388.482C618.144 388.589 618.15 388.701 618.133 388.81C618.117 388.92 618.079 389.025 618.021 389.12C617.08 390.734 615.745 392.084 614.14 393.041C612.602 393.99 610.833 394.502 609.025 394.52Z" fill="#DEB8FC"/>
<path d="M469.571 435.021L465.575 435.129L461.58 435.231C461.557 435.233 461.535 435.226 461.517 435.212C461.5 435.199 461.488 435.178 461.485 435.156C461.482 435.135 461.486 435.113 461.497 435.095C461.508 435.076 461.525 435.062 461.546 435.055C464.501 434.049 467.21 432.43 469.497 430.306C471.493 428.463 472.925 426.092 473.628 423.467C474.202 420.944 474.061 418.31 473.221 415.862C472.4 413.263 470.949 410.908 468.998 409.005C467.046 407.103 464.653 405.714 462.034 404.96C457.753 403.602 453.176 403.475 448.825 404.594C452.967 403.646 456.669 401.33 459.334 398.02C461.713 395.124 463.059 391.518 463.161 387.771C463.263 384.024 462.115 380.35 459.897 377.329C457.871 374.438 454.955 372.29 451.594 371.211C448.233 370.131 444.612 370.181 441.282 371.352C437.71 372.553 434.581 374.798 432.299 377.797C434.203 374.067 434.913 369.841 434.335 365.694C433.782 361.673 431.923 357.944 429.043 355.084C426.08 352.226 422.272 350.406 418.188 349.894C414.24 349.318 410.216 350.149 406.818 352.241C402.748 354.833 400.075 359.371 399.261 364.541C398.409 370.179 399.741 375.929 402.985 380.619C403.015 380.652 403.032 380.696 403.032 380.741C403.032 380.786 403.015 380.83 402.985 380.863C402.951 380.892 402.908 380.908 402.863 380.908C402.818 380.908 402.775 380.892 402.741 380.863C401.051 379.626 399.131 378.735 397.095 378.244C395.058 377.753 392.944 377.67 390.876 378C388.899 378.225 386.999 378.892 385.316 379.952C383.633 381.013 382.211 382.439 381.155 384.125C380.1 385.811 379.438 387.713 379.22 389.69C379.001 391.667 379.231 393.668 379.892 395.544C380.525 397.684 381.603 399.667 383.055 401.362C384.507 403.057 386.3 404.427 388.318 405.381C385.767 404.847 383.135 404.822 380.573 405.307C378.012 405.793 375.572 406.779 373.393 408.21C369.377 410.862 366.609 414.851 366.039 419.064C365.629 422.955 366.705 426.857 369.051 429.987C371.582 433.525 375.22 436.117 379.39 437.354L375.279 437.463L371.168 437.571C365.733 437.717 360.579 440.014 356.837 443.957C353.095 447.9 351.07 453.168 351.209 458.602C351.355 464.037 353.651 469.191 357.595 472.933C361.538 476.675 366.805 478.7 372.24 478.561L389.152 478.106L406.065 477.659C406.49 499.001 406.915 520.344 407.341 541.687C407.766 563.03 408.191 584.375 408.616 605.722L424.219 605.973L439.823 606.224L438.337 541.531L436.845 476.838L453.757 476.39L470.67 475.942C476.046 475.709 481.115 473.372 484.785 469.436C488.454 465.5 490.43 460.28 490.287 454.9C490.144 449.521 487.892 444.414 484.019 440.678C480.145 436.943 474.959 434.88 469.578 434.932L469.571 435.021Z" fill="#BAB653"/>
<path d="M394.668 405.822H387.578C387.467 405.822 387.357 405.8 387.254 405.757C387.152 405.714 387.059 405.651 386.981 405.571C386.902 405.493 386.838 405.399 386.795 405.296C386.752 405.193 386.729 405.082 386.729 404.97C386.729 404.859 386.752 404.748 386.795 404.645C386.838 404.542 386.902 404.448 386.981 404.37C387.141 404.214 387.355 404.126 387.578 404.126H394.668C394.835 404.126 394.999 404.175 395.139 404.268C395.278 404.36 395.387 404.492 395.452 404.647C395.516 404.802 395.534 404.972 395.502 405.136C395.47 405.301 395.39 405.452 395.272 405.571C395.193 405.651 395.099 405.714 394.995 405.757C394.891 405.8 394.78 405.822 394.668 405.822Z" fill="#666538"/>
<path d="M462.312 435.875H440.203C440.092 435.876 439.981 435.854 439.879 435.811C439.776 435.768 439.683 435.704 439.606 435.624C439.526 435.546 439.463 435.453 439.419 435.35C439.376 435.247 439.354 435.136 439.354 435.024C439.354 434.912 439.376 434.802 439.419 434.698C439.463 434.595 439.526 434.502 439.606 434.424C439.765 434.267 439.98 434.18 440.203 434.179H462.312C462.535 434.18 462.749 434.268 462.909 434.424C463.026 434.543 463.105 434.694 463.137 434.858C463.169 435.022 463.152 435.191 463.088 435.346C463.025 435.5 462.917 435.633 462.779 435.727C462.642 435.821 462.479 435.873 462.312 435.875Z" fill="#666538"/>
<path d="M408.786 606.19C403.492 603.65 399.32 599.25 397.063 593.83C394.888 588.75 394.769 583.025 396.73 577.86C398.42 573.669 401.415 570.134 405.272 567.779C409.314 565.297 414.006 564.08 418.745 564.285C417.036 559.969 415.936 555.437 415.475 550.819C414.722 543.451 415.475 534.252 421.357 526.321C427.741 517.671 438.385 512.882 449.171 512.224C459.958 511.566 470.969 515.06 478.031 522.977C484.381 530.086 485.941 538.94 485.867 546.165C485.838 550.724 485.18 555.258 483.913 559.638C491.51 554.837 500.637 553.073 509.475 554.699C517.819 556.142 525.254 560.824 530.16 567.724C534.125 573.552 536.035 580.534 535.587 587.568C535.143 594.952 532.417 602.016 527.786 607.785L468.289 607.004L408.786 606.19Z" fill="#E9CF81"/>
<path d="M136.852 63.3198C136.876 63.1184 136.958 62.9285 137.089 62.7738C137.22 62.6191 137.394 62.5064 137.589 62.4499C137.784 62.3935 137.991 62.3957 138.184 62.4563C138.378 62.5169 138.549 62.6332 138.677 62.7907C145.732 71.5944 152.023 80.9837 157.482 90.8565C165.047 104.517 170.968 119.025 175.121 134.078C179.12 148.598 181.446 163.527 182.054 178.575C182.499 189.551 182.034 200.545 180.664 211.444C180.639 211.646 180.555 211.836 180.423 211.99C180.29 212.145 180.115 212.256 179.919 212.312C179.724 212.367 179.516 212.363 179.322 212.3C179.129 212.237 178.958 212.119 178.832 211.959C173.351 205.113 168.327 197.913 163.791 190.406C148.077 164.427 138.609 135.154 136.133 104.893C134.98 91.046 135.221 77.1185 136.852 63.3198Z" fill="#F4ECE5"/>
<path d="M337.166 196.749C337.361 196.806 337.534 196.918 337.665 197.073C337.796 197.227 337.879 197.417 337.903 197.618C337.927 197.819 337.891 198.023 337.8 198.204C337.708 198.385 337.566 198.535 337.39 198.635C327.564 204.183 317.282 208.883 306.658 212.685C267.149 226.822 224.171 228.048 183.92 216.186C183.726 216.129 183.553 216.016 183.423 215.861C183.292 215.706 183.211 215.516 183.187 215.315C183.164 215.114 183.201 214.91 183.292 214.73C183.384 214.549 183.527 214.4 183.703 214.3C191.343 209.991 199.257 206.186 207.393 202.909C235.569 191.575 265.99 186.93 296.265 189.341C310.112 190.434 323.815 192.916 337.166 196.749Z" fill="#F4ECE5"/>
<path d="M178.031 216.824C178.22 216.751 178.427 216.737 178.624 216.783C178.821 216.829 179 216.933 179.137 217.081C179.277 217.229 179.37 217.415 179.404 217.616C179.438 217.816 179.411 218.022 179.327 218.208C174.686 228.495 169.176 238.368 162.855 247.718C145.641 273.232 122.705 294.372 95.876 309.454C86.3012 314.843 76.2939 319.424 65.9581 323.151C65.7643 323.224 65.5529 323.236 65.3518 323.187C65.1508 323.137 64.9695 323.027 64.8319 322.873C64.6947 322.723 64.6043 322.537 64.5717 322.337C64.5392 322.137 64.5659 321.932 64.6487 321.747C68.2679 313.752 72.4084 306.004 77.0433 298.552C93.055 272.754 114.836 251.024 140.671 235.073C152.483 227.756 164.999 221.642 178.031 216.824Z" fill="#F4ECE5"/>
<path d="M329.412 171.194C329.209 171.195 329.013 171.12 328.862 170.983C328.706 170.85 328.605 170.664 328.577 170.461C326.622 157.841 322.825 145.576 317.309 134.058C309.229 117.016 295.6 97.5321 272.805 83.0141C255.309 71.9446 235.271 65.5361 214.598 64.3985C202.281 63.6158 189.915 64.612 177.882 67.3564C177.774 67.3827 177.663 67.3872 177.553 67.3697C177.444 67.3522 177.339 67.3131 177.244 67.2546C177.053 67.1353 176.916 66.9451 176.865 66.7255C176.813 66.5078 176.85 66.2788 176.967 66.0882C177.084 65.8977 177.271 65.761 177.489 65.7079C189.686 62.9262 202.221 61.9163 214.706 62.7093C235.669 63.8575 255.988 70.355 273.728 81.5827C283.631 87.8649 292.562 95.5602 300.24 104.425C308.03 113.5 314.504 123.626 319.473 134.505C322.747 141.601 325.41 148.964 327.431 156.513C328.652 161.019 329.596 165.596 330.26 170.217C330.289 170.439 330.23 170.663 330.096 170.842C329.961 171.021 329.762 171.14 329.541 171.173H329.412V171.194Z" fill="#666538"/>
<path d="M229.238 474.959C227.302 482.948 226.485 491.167 226.809 499.381C227.109 507.625 228.826 515.756 231.883 523.417C233.957 528.504 236.695 533.295 240.024 537.664C243.342 542.04 247.279 545.91 251.713 549.149C256.397 552.625 261.858 554.907 267.622 555.798C273.049 556.659 278.782 556.381 285.003 555.635C289.148 555.101 293.358 555.392 297.391 556.49C301.218 557.556 304.747 559.492 307.703 562.148C310.393 564.65 312.444 567.76 313.686 571.218C314.946 574.664 315.744 578.261 316.061 581.917C316.176 583.104 316.345 589.081 316.454 594.766C316.563 600.451 316.61 605.831 316.488 605.831H334.934C334.934 605.831 335.097 602.554 335.117 597.988C335.171 592.779 334.945 587.57 334.439 582.385C333.991 577.936 333.176 573.532 332.003 569.217C330.43 563.552 328.049 558.144 324.934 553.159C322.93 549.931 320.497 546.989 317.702 544.414C314.918 541.839 311.703 539.773 308.205 538.308C304.175 536.66 299.928 536.178 295.634 536.144C291.339 536.11 286.991 536.531 282.744 536.694C278.415 536.888 274.084 536.361 269.929 535.134C265.771 533.912 261.922 531.817 258.64 528.987C248.403 520.025 245.927 507.278 246.808 494.096C247.69 480.915 251.93 467.164 255.133 456.173C256.7 450.78 258.464 444.885 260.438 438.535C262.412 432.185 264.576 425.407 266.971 418.23L257.568 414.838L248.165 411.446C245.737 418.23 243.367 425.24 241.056 432.477C238.744 439.713 236.528 447.175 234.407 454.864C233.466 458.274 232.562 461.666 231.693 465.04C230.825 468.414 230.007 471.72 229.238 474.959Z" fill="#BAB653"/>
<path d="M247.412 487.835C248.073 484.795 248.728 481.761 249.38 478.731L251.354 469.626C251.428 469.314 251.496 469.063 251.551 468.846C251.605 468.629 251.659 468.439 251.707 468.249C251.815 467.808 251.971 467.211 252.202 466.363C252.433 465.515 252.738 464.416 253.152 462.971C254.902 456.865 256.483 451.601 257.622 447.829C258.762 444.057 259.468 441.805 259.468 441.805C260.472 438.596 261.598 435.021 262.86 431.045C264.122 427.07 265.499 422.796 266.998 418.155L257.595 414.763L248.192 411.371C246.347 416.344 244.699 420.95 243.24 425.136C241.782 429.322 240.526 433.067 239.455 436.316C239.224 436.995 237.1 443.521 234.665 452.089C232.229 460.658 229.495 471.295 228.037 480.209C227.691 482.306 227.358 484.524 227.155 486.905C226.951 489.287 226.775 491.831 226.748 494.571C226.748 496.335 226.748 497.963 226.829 499.402C226.911 500.84 226.985 502.115 227.074 503.174L237.25 495.494L247.412 487.835Z" fill="#666538"/>
<path d="M261.455 536.673C256.854 532.043 250.802 529.133 244.312 528.431C239.617 527.834 234.848 528.372 230.404 529.998C230.228 529.32 230.038 528.641 229.807 528.024C228.794 525.01 227.171 522.237 225.038 519.879C222.905 517.521 220.308 515.629 217.411 514.32C214.513 513.011 211.377 512.313 208.197 512.271C205.018 512.229 201.864 512.844 198.933 514.076C197.377 514.714 195.889 515.504 194.489 516.437C192.613 511.822 189.195 508 184.817 505.621C180.44 503.242 175.374 502.454 170.481 503.391C168.075 503.843 165.795 504.805 163.793 506.213C161.791 507.62 160.114 509.441 158.875 511.552C157.636 513.662 156.864 516.014 156.611 518.448C156.358 520.882 156.63 523.342 157.408 525.663C159.047 530.623 162.436 534.817 166.942 537.461C171.447 540.105 176.761 541.019 181.891 540.032C182.231 539.964 182.57 539.882 182.902 539.787C183.042 542.1 183.498 544.383 184.259 546.571C185.273 549.585 186.897 552.357 189.03 554.714C191.163 557.071 193.76 558.964 196.657 560.273C199.554 561.582 202.691 562.279 205.87 562.322C209.049 562.364 212.202 561.751 215.133 560.52C216.656 559.902 218.112 559.134 219.482 558.227C220.262 559.441 221.157 560.577 222.155 561.619C226.806 566.173 232.828 569.068 239.29 569.854C245.752 570.64 252.293 569.274 257.9 565.967C262.934 562.779 266.394 557.948 267.086 552.236C267.778 546.524 265.573 540.975 261.455 536.673Z" fill="#BAB653"/>
<path d="M252.684 549.998H252.609H252.534C247.67 549.136 242.799 548.145 237.962 547.026C233.125 545.907 228.329 544.658 223.58 543.302C212.192 540.034 201.018 536.065 190.121 531.416C179.155 526.742 168.486 521.4 158.174 515.419C158.077 515.364 157.993 515.29 157.925 515.201C157.857 515.113 157.808 515.011 157.781 514.903C157.75 514.796 157.742 514.683 157.756 514.572C157.77 514.46 157.806 514.353 157.862 514.256C157.919 514.159 157.994 514.075 158.084 514.008C158.173 513.941 158.276 513.892 158.385 513.865C158.491 513.836 158.603 513.829 158.712 513.844C158.822 513.86 158.927 513.897 159.022 513.954C169.274 519.9 179.882 525.211 190.785 529.856C201.61 534.479 212.712 538.424 224.028 541.667C228.743 543.023 233.525 544.251 238.322 545.364C243.118 546.477 247.969 547.46 252.813 548.315C253.031 548.36 253.223 548.487 253.35 548.67C253.476 548.854 253.527 549.079 253.491 549.299C253.452 549.491 253.347 549.663 253.195 549.787C253.043 549.911 252.853 549.978 252.656 549.977L252.684 549.998Z" fill="#666538"/>
<path d="M296.61 448.311C298.312 452.108 298.819 456.333 298.065 460.425C297.312 464.518 295.333 468.285 292.39 471.227C289.448 474.169 285.681 476.149 281.589 476.902C277.496 477.656 273.272 477.148 269.474 475.447C267.988 479.329 265.359 482.669 261.935 485.025C258.511 487.381 254.452 488.642 250.295 488.642C246.139 488.642 242.08 487.381 238.656 485.025C235.231 482.669 232.603 479.329 231.117 475.447C227.319 477.152 223.093 477.663 218.999 476.911C214.904 476.158 211.135 474.179 208.192 471.236C205.248 468.292 203.269 464.523 202.517 460.429C201.765 456.335 202.275 452.108 203.98 448.311C200.098 446.827 196.757 444.199 194.401 440.775C192.044 437.351 190.782 433.292 190.782 429.136C190.782 424.979 192.044 420.92 194.401 417.496C196.757 414.072 200.098 411.445 203.98 409.96C202.275 406.163 201.765 401.936 202.517 397.842C203.269 393.748 205.248 389.979 208.192 387.035C211.135 384.092 214.904 382.113 218.999 381.36C223.093 380.608 227.319 381.119 231.117 382.824C232.603 378.942 235.231 375.602 238.656 373.246C242.08 370.89 246.139 369.629 250.295 369.629C254.452 369.629 258.511 370.89 261.935 373.246C265.359 375.602 267.988 378.942 269.474 382.824C273.272 381.123 277.496 380.615 281.589 381.369C285.681 382.122 289.448 384.102 292.39 387.044C295.333 389.986 297.312 393.753 298.065 397.846C298.819 401.938 298.312 406.163 296.61 409.96C300.493 411.445 303.834 414.072 306.19 417.496C308.547 420.92 309.809 424.979 309.809 429.136C309.809 433.292 308.547 437.351 306.19 440.775C303.834 444.199 300.493 446.827 296.61 448.311Z" fill="#DEB8FC"/>
<path d="M272.459 433.718C271.642 438.847 269.072 443.534 265.187 446.981C261.302 450.427 256.341 452.42 251.152 452.619C245.962 452.818 240.863 451.212 236.725 448.074C232.587 444.936 229.665 440.459 228.457 435.408C227.249 430.357 227.83 425.043 230.101 420.372C232.371 415.701 236.191 411.962 240.91 409.792C245.629 407.622 250.954 407.155 255.978 408.471C261.002 409.787 265.414 412.804 268.463 417.009C270.199 419.393 271.445 422.096 272.131 424.964C272.817 427.832 272.928 430.807 272.459 433.718Z" fill="#F4ECE5"/>
<path d="M190.684 221.111C190.687 223.244 189.95 225.312 188.6 226.962C187.249 228.613 185.368 229.744 183.277 230.164C181.186 230.583 179.014 230.265 177.131 229.262C175.249 228.26 173.772 226.636 172.952 224.667C172.133 222.698 172.021 220.506 172.637 218.464C173.252 216.422 174.557 214.656 176.328 213.468C178.099 212.28 180.227 211.742 182.35 211.947C184.473 212.152 186.459 213.087 187.97 214.592C188.83 215.445 189.513 216.461 189.979 217.58C190.445 218.699 190.684 219.899 190.684 221.111Z" fill="#255FA2"/>
<path d="M436.838 476.933H426.533H416.228L426.852 490.603L437.469 504.28L437.15 490.603L436.838 476.933Z" fill="#353519"/>
<path d="M264.115 605.81C264.057 603.672 264.267 601.534 264.739 599.447C265.497 596.028 267.016 592.823 269.182 590.071C271.642 586.997 274.865 584.622 278.531 583.185C281.011 582.212 283.594 581.529 286.231 581.15C290.39 580.463 294.646 580.626 298.741 581.632C302.823 582.637 306.632 584.534 309.894 587.188C311.713 588.687 313.328 590.418 314.697 592.337C315.41 593.327 316.045 594.37 316.597 595.458C317.535 597.341 318.233 599.336 318.672 601.394C318.983 602.843 319.162 604.316 319.208 605.797H291.665L264.115 605.81Z" fill="#F4ECE5"/>
<path d="M302.357 588.959C302.341 589.459 302.21 589.95 301.975 590.392C301.74 590.834 301.406 591.217 301 591.51C300.074 592.197 298.951 592.568 297.798 592.568C296.644 592.568 295.522 592.197 294.596 591.51C294.186 591.222 293.851 590.839 293.62 590.395C293.389 589.95 293.268 589.456 293.268 588.955C293.268 588.454 293.389 587.961 293.62 587.516C293.851 587.071 294.186 586.689 294.596 586.401C295.522 585.714 296.644 585.343 297.798 585.343C298.951 585.343 300.074 585.714 301 586.401C301.407 586.695 301.741 587.078 301.976 587.522C302.211 587.965 302.341 588.457 302.357 588.959Z" fill="#255FA2"/>
<path d="M300.043 237.393C300.038 237.253 300.072 237.115 300.143 236.995C300.214 236.874 300.319 236.777 300.444 236.715C300.571 236.645 300.717 236.617 300.861 236.632C301.005 236.648 301.141 236.708 301.251 236.803C315.706 249.033 327.557 264.042 336.101 280.94C344.644 297.838 349.706 316.281 350.985 335.172C350.991 335.313 350.956 335.452 350.883 335.572C350.811 335.693 350.705 335.79 350.578 335.851C350.449 335.919 350.303 335.947 350.158 335.931C350.012 335.915 349.875 335.857 349.764 335.762C344.99 331.718 340.487 327.364 336.284 322.73C331.133 317.055 326.459 310.965 322.309 304.522C314.773 292.803 309.016 280.033 305.226 266.626C302.525 257.079 300.789 247.286 300.043 237.393Z" fill="#F4ECE5"/>
<path d="M458.574 303.416C458.718 303.43 458.855 303.485 458.968 303.576C459.081 303.667 459.165 303.789 459.209 303.927C459.253 304.065 459.256 304.213 459.216 304.353C459.177 304.492 459.098 304.617 458.988 304.712C444.598 317.014 427.884 326.301 409.837 332.02C391.79 337.74 372.778 339.776 353.929 338.008C353.785 337.996 353.647 337.942 353.534 337.852C353.42 337.762 353.336 337.64 353.292 337.502C353.248 337.364 353.245 337.216 353.285 337.077C353.325 336.937 353.405 336.813 353.516 336.719C358.276 332.654 363.298 328.906 368.549 325.498C374.977 321.328 381.739 317.697 388.766 314.644C401.54 309.089 415.068 305.461 428.907 303.877C438.756 302.733 448.695 302.579 458.574 303.416Z" fill="#F4ECE5"/>
<path d="M351.277 340.735C351.414 340.691 351.562 340.688 351.701 340.726C351.84 340.765 351.964 340.845 352.059 340.954C352.153 341.063 352.213 341.198 352.23 341.342C352.248 341.485 352.223 341.631 352.159 341.76C343.694 358.692 331.914 373.752 317.518 386.045C303.122 398.339 286.404 407.616 268.355 413.325C268.217 413.369 268.07 413.371 267.931 413.331C267.792 413.291 267.668 413.211 267.575 413.101C267.48 412.992 267.42 412.856 267.404 412.712C267.387 412.568 267.413 412.423 267.48 412.294C270.286 406.695 273.459 401.288 276.977 396.107C289.134 378.181 305.283 363.319 324.154 352.689C332.772 347.807 341.859 343.802 351.277 340.735Z" fill="#F4ECE5"/>
<path d="M359.492 341.298C359.491 343.053 358.881 344.753 357.767 346.108C356.653 347.464 355.103 348.391 353.382 348.732C351.661 349.073 349.874 348.807 348.328 347.978C346.781 347.15 345.569 345.811 344.899 344.19C344.228 342.568 344.141 340.764 344.651 339.086C345.162 337.407 346.238 335.957 347.698 334.983C349.158 334.009 350.91 333.571 352.656 333.744C354.402 333.917 356.034 334.691 357.274 335.932C357.978 336.637 358.537 337.473 358.918 338.394C359.298 339.315 359.494 340.302 359.492 341.298Z" fill="#255FA2"/>
<path d="M403.555 426.31C403.555 428.427 402.82 430.479 401.477 432.115C400.133 433.752 398.264 434.872 396.187 435.284C394.111 435.697 391.955 435.377 390.088 434.379C388.221 433.38 386.758 431.766 385.948 429.809C385.138 427.853 385.031 425.677 385.646 423.65C386.261 421.624 387.559 419.874 389.32 418.698C391.081 417.522 393.195 416.993 395.302 417.201C397.409 417.408 399.379 418.34 400.876 419.838C401.727 420.687 402.402 421.695 402.862 422.806C403.322 423.917 403.557 425.108 403.555 426.31Z" fill="#DEB8FC"/>
<path d="M435.997 453.29C436.004 455.407 435.278 457.461 433.941 459.102C432.604 460.743 430.74 461.87 428.666 462.291C426.591 462.712 424.435 462.401 422.564 461.411C420.693 460.421 419.224 458.813 418.405 456.861C417.587 454.909 417.47 452.734 418.075 450.706C418.681 448.677 419.97 446.921 421.725 445.737C423.479 444.553 425.59 444.013 427.697 444.211C429.805 444.408 431.779 445.329 433.283 446.818C434.14 447.664 434.822 448.672 435.287 449.783C435.753 450.894 435.994 452.086 435.997 453.29Z" fill="#DEB8FC"/>
<path d="M448.812 405.435C448.812 407.553 448.077 409.604 446.734 411.241C445.39 412.877 443.521 413.997 441.444 414.41C439.367 414.823 437.212 414.503 435.345 413.504C433.478 412.506 432.014 410.891 431.205 408.935C430.395 406.978 430.288 404.802 430.903 402.776C431.518 400.75 432.816 399 434.577 397.824C436.337 396.648 438.451 396.118 440.558 396.326C442.665 396.534 444.635 397.466 446.132 398.963C446.983 399.812 447.658 400.821 448.118 401.932C448.578 403.042 448.814 404.233 448.812 405.435Z" fill="#DEB8FC"/>
<path d="M271.747 385.612C271.635 385.613 271.524 385.59 271.421 385.544C271.315 385.503 271.22 385.438 271.143 385.354C265.45 379.481 260.58 372.862 256.666 365.68C250.535 354.568 246.994 342.214 246.307 329.541C245.289 309.983 251.395 293.782 258.416 281.917C263.18 273.821 269.125 266.481 276.055 260.14C276.224 259.992 276.446 259.916 276.671 259.93C276.895 259.944 277.106 260.047 277.256 260.215C277.33 260.297 277.387 260.393 277.423 260.498C277.46 260.603 277.474 260.715 277.466 260.825C277.459 260.937 277.431 261.045 277.382 261.146C277.333 261.246 277.265 261.335 277.181 261.409C270.395 267.63 264.573 274.828 259.909 282.765C253.023 294.4 247.019 310.247 248.023 329.433C248.701 341.858 252.18 353.969 258.199 364.859C262.036 371.907 266.81 378.402 272.391 384.167C272.548 384.329 272.636 384.545 272.636 384.771C272.632 384.994 272.541 385.207 272.383 385.364C272.225 385.521 272.011 385.61 271.788 385.612H271.747Z" fill="#666538"/>
<path d="M27.2888 467.272C21.6173 477.414 18.3813 488.303 17.8589 498.696C17.3366 509.089 19.5278 518.994 24.6973 527.149C29.0798 534.062 35.3958 539.408 40.9791 543.2C44.8038 545.782 48.844 548.029 53.0548 549.916C55.9007 551.171 58.8266 552.236 61.8131 553.105C64.147 553.777 66.5131 554.332 68.9025 554.767L67.7221 544.502L66.5348 534.231C66.5348 534.231 52.2407 532.562 42.2817 523.377C32.3226 514.191 26.6783 497.428 44.0523 467.293H27.2888V467.272Z" fill="#BAB653"/>
<path d="M10.0841 448.826C8.18918 448.73 6.30621 449.177 4.65684 450.115C3.04904 451.02 1.75469 452.392 0.945939 454.05C0.108036 455.822 -0.182488 457.804 0.111492 459.742C0.378382 461.746 1.42094 463.566 3.01509 464.81C4.20163 465.692 5.61195 466.223 7.08555 466.343C8.63565 466.466 10.1923 466.205 11.6173 465.583C9.63853 466.453 8.03931 468.006 7.11268 469.959C6.20504 471.864 6.02411 474.035 6.60388 476.064C7.21549 478.096 8.54376 479.836 10.3419 480.963C12.0807 482.091 14.181 482.522 16.2237 482.17C18.0929 481.801 19.7734 480.788 20.9726 479.307C21.6222 478.549 22.1549 477.699 22.5533 476.784C22.8839 477.867 23.3683 478.897 23.9915 479.843C25.1329 481.667 26.8528 483.054 28.8761 483.785C30.8655 484.46 33.0159 484.501 35.0293 483.9C37.0597 483.326 38.8124 482.034 39.9613 480.264C40.767 478.977 41.2165 477.5 41.2638 475.983C41.3031 475.072 41.221 474.159 41.0196 473.269C42.4713 474.995 44.3394 476.321 46.4469 477.123C48.3983 477.867 50.5343 477.978 52.5526 477.442C53.5097 477.176 54.4236 476.774 55.2662 476.248C56.768 475.346 57.9223 473.964 58.5429 472.326C59.1726 470.572 59.1726 468.653 58.5429 466.899C58.2422 465.985 57.8078 465.121 57.254 464.335C59.4341 465.024 61.7911 464.894 63.882 463.968C65.8631 463.104 67.4383 461.514 68.2849 459.525C69.0348 457.624 69.0348 455.51 68.2849 453.609C67.624 451.8 66.4441 450.226 64.8929 449.084C63.8057 448.315 62.5615 447.796 61.2498 447.564C60.4217 447.418 59.5788 447.372 58.7397 447.429C59.5529 446.848 60.2873 446.164 60.9242 445.393C61.918 444.22 62.5746 442.799 62.8237 441.282C62.9746 439.945 62.845 438.59 62.4431 437.305C62.0413 436.02 61.3761 434.833 60.49 433.82C59.6244 432.736 58.5494 431.837 57.3291 431.177C56.1088 430.518 54.7681 430.11 53.387 429.98C51.3033 429.882 49.244 430.463 47.5188 431.635C46.5375 432.272 45.6494 433.041 44.8798 433.922C44.9671 432.758 44.9055 431.589 44.6966 430.441C44.4034 428.691 43.6254 427.057 42.4511 425.726C40.2666 423.325 36.7592 422.26 33.3129 422.484C29.8666 422.707 26.4745 424.214 24.541 426.941C23.4041 428.602 22.7899 430.565 22.7772 432.578C22.7467 433.827 22.879 435.075 23.1706 436.289C21.9523 434.678 20.334 433.413 18.476 432.619C16.7143 431.858 14.7653 431.64 12.8792 431.995C10.3461 432.568 8.11244 434.053 6.60388 436.167C5.84089 437.14 5.29831 438.267 5.01367 439.47C4.72903 440.673 4.70913 441.923 4.95534 443.134C5.38526 444.73 6.30034 446.152 7.574 447.205C8.33369 447.856 9.17807 448.402 10.0841 448.826Z" fill="#DEB8FC"/>
<path d="M27.3158 448.324C25.8113 447.846 24.2191 447.709 22.6551 447.924C21.8666 448.033 21.1112 448.312 20.4411 448.742C19.7711 449.172 19.2025 449.742 18.7746 450.414C18.1981 451.308 17.9127 452.359 17.9576 453.422C18.0026 454.485 18.3757 455.507 19.0257 456.35C19.6376 457.219 20.462 457.918 21.4203 458.379C22.3787 458.839 23.4391 459.047 24.5004 458.982C24.3919 458.982 24.2155 459.24 24.0527 459.504C23.8899 459.769 23.7474 460.047 23.6931 460.135C23.3032 460.774 23.0527 461.488 22.958 462.231C22.8633 462.973 22.9266 463.727 23.1436 464.443C23.3705 465.158 23.7528 465.813 24.2631 466.362C24.7733 466.911 25.3989 467.34 26.0947 467.618C26.8256 467.876 27.6025 467.977 28.375 467.915C29.1476 467.853 29.8985 467.629 30.579 467.259C31.9972 466.605 33.181 465.532 33.971 464.185C34.2975 463.51 34.5808 462.814 34.819 462.103C35.0565 461.424 35.2261 460.848 35.2261 460.848C36.5829 462.415 37.3902 463.29 37.8719 463.778C38.0654 463.986 38.274 464.179 38.496 464.355C39.0871 464.705 39.7211 464.976 40.382 465.162C41.6493 465.541 43.0049 465.503 44.2489 465.054C44.5733 464.934 44.8847 464.782 45.1784 464.599C45.4869 464.414 45.7776 464.201 46.0467 463.962C47.1177 462.994 47.8201 461.685 48.0345 460.257C48.1643 459.554 48.1361 458.831 47.9518 458.14C47.7676 457.448 47.432 456.807 46.9694 456.262C46.5531 455.826 46.099 455.429 45.6125 455.074C45.1512 454.722 44.7781 454.471 44.7781 454.471L45.314 454.206L45.7957 453.969C46.4933 453.602 47.1106 453.1 47.6116 452.492C48.1125 451.884 48.4869 451.182 48.7129 450.427C48.9599 449.671 49.0494 448.872 48.9758 448.08C48.9023 447.288 48.6674 446.519 48.2855 445.821C47.8173 444.978 47.1272 444.279 46.29 443.801C45.4528 443.323 44.5005 443.083 43.5366 443.107C42.5771 443.105 41.628 443.307 40.7521 443.698C39.8762 444.09 39.0934 444.663 38.4553 445.38C38.4801 445.059 38.4801 444.737 38.4553 444.417C38.4317 443.992 38.3612 443.571 38.245 443.161C37.9087 442.004 37.247 440.968 36.3387 440.176C35.8584 439.759 35.3273 439.403 34.758 439.118C33.6317 438.59 32.3899 438.357 31.1488 438.44C29.8209 438.522 28.5665 439.078 27.6143 440.007C26.8147 440.834 26.2848 441.884 26.0947 443.019C25.9837 443.598 25.9495 444.188 25.9929 444.776C26.0299 445.121 26.098 445.461 26.1964 445.794C26.2738 446.055 26.369 446.312 26.4814 446.56C26.5357 446.703 26.6713 447.117 26.8274 447.503C26.9834 447.89 27.1666 448.283 27.3158 448.324Z" fill="#255FA2"/>
<path d="M135.916 508.967L132.524 509.055L129.098 509.144C129.089 509.145 129.08 509.144 129.071 509.141C129.062 509.139 129.054 509.134 129.048 509.129C129.041 509.123 129.035 509.116 129.031 509.108C129.026 509.1 129.024 509.092 129.023 509.083C129.019 509.064 129.022 509.044 129.032 509.028C129.042 509.011 129.059 508.999 129.077 508.994C131.601 508.134 133.914 506.746 135.861 504.924C137.572 503.351 138.798 501.322 139.396 499.076C139.885 496.919 139.765 494.669 139.05 492.577C138.673 491.405 138.149 490.286 137.49 489.246C135.586 486.387 132.757 484.27 129.477 483.249C125.816 482.089 121.902 481.981 118.182 482.937C121.725 482.128 124.89 480.147 127.164 477.313C129.2 474.837 130.353 471.754 130.441 468.55C130.53 465.346 129.549 462.204 127.653 459.62C125.92 457.146 123.425 455.306 120.548 454.383C117.672 453.459 114.573 453.502 111.723 454.505C108.669 455.533 105.992 457.451 104.037 460.013C105.661 456.824 106.263 453.211 105.76 449.667C105.291 446.227 103.701 443.036 101.235 440.59C98.7042 438.155 95.4535 436.603 91.9682 436.167C88.587 435.683 85.1432 436.403 82.2398 438.202C78.7799 440.421 76.4733 444.308 75.7746 448.724C75.0463 453.547 76.1868 458.466 78.9631 462.476C78.9879 462.505 79.0016 462.542 79.0016 462.581C79.0016 462.619 78.9879 462.657 78.9631 462.686C78.9348 462.711 78.8987 462.724 78.8613 462.724C78.824 462.724 78.7879 462.711 78.7596 462.686C77.31 461.624 75.664 460.861 73.9171 460.441C72.1703 460.02 70.3573 459.951 68.5834 460.237C66.8914 460.428 65.2642 460.998 63.8231 461.905C62.382 462.812 61.1641 464.032 60.2603 465.475C59.3565 466.919 58.79 468.547 58.6031 470.239C58.4162 471.932 58.6136 473.645 59.1806 475.25C59.7202 477.077 60.6381 478.769 61.8747 480.217C63.1113 481.665 64.639 482.837 66.3582 483.656C61.9582 482.743 57.376 483.614 53.6177 486.078C50.1849 488.344 47.8241 491.756 47.3288 495.372C46.984 498.691 47.9047 502.017 49.9068 504.687C52.0634 507.71 55.167 509.928 58.7261 510.989L55.2119 511.084L51.6978 511.179C47.0462 511.303 42.6343 513.27 39.4322 516.646C36.2302 520.022 34.5 524.532 34.6222 529.184C34.6803 531.489 35.1919 533.76 36.128 535.867C37.0641 537.974 38.4062 539.876 40.0776 541.465C41.749 543.053 43.7171 544.296 45.8692 545.124C48.0214 545.951 50.3155 546.346 52.6204 546.287L67.0909 545.9L81.5614 545.513L82.7622 575.669L83.963 605.831H108.928L108.433 575.302L107.945 544.774L122.408 544.387L136.879 544.007C141.532 543.883 145.945 541.915 149.147 538.538C152.349 535.16 154.079 530.648 153.955 525.995C153.894 523.692 153.38 521.423 152.442 519.319C151.504 517.214 150.161 515.315 148.489 513.73C146.817 512.145 144.849 510.905 142.697 510.081C140.546 509.256 138.253 508.864 135.95 508.927L135.916 508.967Z" fill="#E9CF81"/>
<path d="M107.911 544.815H100.862H93.8137L101.046 554.536L108.277 564.258L108.094 554.536L107.911 544.815Z" fill="#353519"/>
<path d="M72.4165 484.504H66.3515C66.1278 484.502 65.9138 484.412 65.7563 484.253C65.5987 484.094 65.5103 483.88 65.5103 483.656C65.5121 483.431 65.602 483.217 65.7606 483.058C65.9193 482.899 66.1339 482.81 66.3583 482.808H72.4233C72.6482 482.808 72.8639 482.897 73.0229 483.056C73.1819 483.215 73.2713 483.431 73.2713 483.656C73.2731 483.768 73.2524 483.879 73.2105 483.982C73.1685 484.086 73.1061 484.18 73.027 484.26C72.9479 484.339 72.8537 484.401 72.75 484.443C72.6462 484.485 72.5352 484.506 72.4233 484.504H72.4165Z" fill="#666538"/>
<path d="M129.702 510.188H110.788C110.564 510.187 110.35 510.1 110.191 509.944C110.111 509.865 110.048 509.771 110.004 509.667C109.961 509.564 109.939 509.453 109.94 509.34C109.939 509.229 109.961 509.119 110.004 509.016C110.047 508.914 110.111 508.821 110.191 508.743C110.269 508.664 110.361 508.601 110.464 508.558C110.566 508.515 110.676 508.493 110.788 508.492H129.702C129.926 508.494 130.141 508.584 130.299 508.743C130.458 508.901 130.548 509.116 130.55 509.34C130.55 509.565 130.46 509.781 130.301 509.94C130.142 510.099 129.927 510.188 129.702 510.188Z" fill="#666538"/>
<path d="M102.09 463.616C102.005 463.618 101.92 463.607 101.839 463.582C101.69 463.531 101.557 463.442 101.454 463.323C101.351 463.203 101.283 463.058 101.256 462.903C101.235 462.793 101.237 462.679 101.262 462.57C101.286 462.46 101.333 462.357 101.398 462.265L102.368 460.909L103.332 459.552C103.387 459.443 103.466 459.347 103.562 459.272C103.658 459.196 103.77 459.142 103.889 459.114C104.008 459.085 104.132 459.083 104.252 459.106C104.372 459.13 104.485 459.18 104.584 459.252C104.683 459.323 104.766 459.416 104.826 459.523C104.886 459.629 104.922 459.748 104.932 459.87C104.942 459.992 104.925 460.114 104.883 460.229C104.841 460.344 104.775 460.449 104.688 460.536L103.725 461.892L102.755 463.249C102.674 463.362 102.567 463.453 102.443 463.514C102.334 463.574 102.214 463.609 102.09 463.616Z" fill="#666538"/>
<path d="M390.231 567.27L389.248 586.699L388.257 606.136L406.147 606.312L424.037 606.495L422.001 586.489C421.318 579.818 420.64 573.147 419.966 566.476C419.01 557.331 411.825 552.908 404.749 553.125C397.674 553.342 390.693 558.084 390.231 567.27Z" fill="#F4ECE5"/>
<path d="M411.126 562.202C411.113 562.448 411.041 562.688 410.914 562.899C410.788 563.111 410.611 563.289 410.4 563.416C409.871 563.744 409.26 563.918 408.637 563.918C408.013 563.918 407.403 563.744 406.873 563.416C406.647 563.304 406.457 563.131 406.324 562.916C406.191 562.702 406.121 562.454 406.121 562.202C406.121 561.95 406.191 561.703 406.324 561.488C406.457 561.273 406.647 561.1 406.873 560.988C407.401 560.655 408.012 560.479 408.637 560.479C409.261 560.479 409.872 560.655 410.4 560.988C410.612 561.115 410.789 561.292 410.916 561.504C411.042 561.716 411.115 561.956 411.126 562.202Z" fill="#255FA2"/>
<path d="M416.513 569.305C416.503 569.653 416.415 569.994 416.255 570.302C416.096 570.611 415.868 570.88 415.59 571.089C414.941 571.565 414.157 571.822 413.351 571.822C412.546 571.822 411.762 571.565 411.113 571.089C410.826 570.888 410.592 570.621 410.43 570.311C410.268 570 410.184 569.655 410.184 569.305C410.184 568.955 410.268 568.61 410.43 568.299C410.592 567.989 410.826 567.721 411.113 567.521C411.76 567.04 412.545 566.781 413.351 566.781C414.158 566.781 414.943 567.04 415.59 567.521C415.869 567.729 416.097 567.997 416.257 568.306C416.417 568.616 416.505 568.957 416.513 569.305Z" fill="#255FA2"/>
<path d="M90.1636 425.028C90.1636 425.028 95.2584 412.389 102.877 397.314C110.496 382.24 120.658 364.751 130.78 354.995C133.114 352.667 136.177 351.212 139.455 350.872C142.734 350.532 146.03 351.329 148.792 353.13C151.597 354.828 153.728 357.446 154.823 360.538C155.917 363.629 155.908 367.004 154.796 370.09C153.342 374.131 151.31 377.94 148.765 381.399C145.091 386.427 140.923 391.075 136.323 395.272L117.551 414.702L98.7862 434.132C98.1813 433.151 97.5009 432.219 96.7509 431.344C94.7981 428.999 92.5885 426.88 90.1636 425.028Z" fill="#BAB653"/>
<path d="M98.0738 425.903C97.8937 425.901 97.7184 425.845 97.5718 425.74C97.3908 425.606 97.2692 425.406 97.2326 425.184C97.1995 424.961 97.2556 424.734 97.3886 424.553L120.183 393.468L142.971 362.383C143.104 362.201 143.304 362.079 143.527 362.044C143.75 362.015 143.975 362.07 144.158 362.2C144.34 362.333 144.462 362.533 144.497 362.756C144.527 362.979 144.471 363.204 144.341 363.387L121.547 394.472L98.7522 425.557C98.6679 425.664 98.5615 425.752 98.4402 425.815C98.3257 425.87 98.2008 425.9 98.0738 425.903Z" fill="#666538"/>
<path d="M502.847 607.377L496.138 607.554L489.428 607.73C488.152 607.764 486.883 607.529 485.704 607.04C484.524 606.551 483.461 605.82 482.583 604.893C481.704 603.967 481.031 602.866 480.605 601.663C480.18 600.459 480.012 599.179 480.114 597.907L481.952 575.004L483.784 552.101L494.408 551.816L505.032 551.531L508.322 574.257L511.612 596.95C511.796 598.222 511.708 599.518 511.354 600.753C511.001 601.988 510.391 603.134 509.563 604.117C508.735 605.099 507.708 605.895 506.551 606.452C505.394 607.01 504.131 607.316 502.847 607.35V607.377Z" fill="#F4ECE5"/>
<path d="M483.791 552.101L495.805 561.381L507.813 570.655L506.429 561.096L505.045 551.531L494.421 551.816L483.791 552.101Z" fill="#AD4D4D"/>
<path d="M539.936 550.649L496.029 551.816L452.123 552.983C451.48 552.997 450.858 552.757 450.391 552.315C449.925 551.873 449.652 551.264 449.633 550.622L449.585 548.871L449.545 547.128C449.253 536.145 453.336 525.495 460.896 517.522C468.455 509.549 478.872 504.905 489.856 504.612L494.767 504.483L499.686 504.354C510.669 504.062 521.319 508.145 529.292 515.705C537.265 523.265 541.909 533.682 542.202 544.665L542.249 546.409L542.297 548.159C542.311 548.802 542.072 549.424 541.629 549.89C541.187 550.357 540.578 550.629 539.936 550.649Z" fill="#255FA2"/>
<path d="M491.05 535.106C490.825 535.106 490.609 535.017 490.45 534.858C490.291 534.699 490.202 534.483 490.202 534.258V506.878L480.338 514.612L470.474 522.325C470.386 522.393 470.286 522.443 470.178 522.472C470.071 522.501 469.959 522.509 469.849 522.495C469.738 522.484 469.631 522.45 469.534 522.395C469.437 522.34 469.352 522.266 469.286 522.176C469.216 522.089 469.164 521.989 469.133 521.882C469.103 521.775 469.095 521.662 469.11 521.552C469.123 521.441 469.158 521.335 469.213 521.238C469.268 521.142 469.341 521.057 469.429 520.989L479.401 513.167L489.374 505.365C489.565 505.158 489.813 505.011 490.086 504.942C490.36 504.874 490.647 504.886 490.914 504.978C491.198 505.075 491.445 505.257 491.621 505.5C491.798 505.743 491.894 506.035 491.898 506.335V534.238C491.898 534.463 491.808 534.679 491.649 534.838C491.49 534.997 491.275 535.086 491.05 535.086V535.106Z" fill="#AD4D4D"/>
<path d="M512.494 526.993C512.387 526.993 512.281 526.972 512.182 526.931C512.077 526.895 511.982 526.835 511.904 526.755L501.049 516.348L490.195 505.935L490.412 505.297L490.622 504.653L491.023 504.754L491.416 504.849L502.949 508.18L514.482 511.511C514.698 511.576 514.88 511.722 514.991 511.918C515.074 512.065 515.112 512.233 515.099 512.401C515.085 512.569 515.022 512.729 514.917 512.861C514.812 512.992 514.669 513.089 514.508 513.139C514.347 513.189 514.175 513.189 514.014 513.139L504.075 510.277L494.225 507.4L503.655 516.457L513.078 525.52C513.157 525.599 513.221 525.692 513.264 525.795C513.307 525.898 513.33 526.009 513.33 526.121C513.33 526.233 513.307 526.343 513.264 526.446C513.221 526.549 513.157 526.643 513.078 526.721C513 526.805 512.905 526.871 512.8 526.915C512.695 526.959 512.581 526.981 512.467 526.979L512.494 526.993Z" fill="#AD4D4D"/>
<path d="M535.031 65.7553L526.151 70.3142L517.284 74.846C517.051 74.9638 516.845 75.1294 516.68 75.332C516.516 75.5347 516.395 75.7697 516.328 76.0219C516.26 76.2741 516.246 76.5377 516.287 76.7957C516.328 77.0536 516.422 77.3 516.565 77.5189L521.992 85.8769L527.419 94.2417C527.604 94.5301 527.706 94.8638 527.714 95.2063C527.721 95.5487 527.634 95.8866 527.463 96.183C527.291 96.4794 527.041 96.7228 526.74 96.8866C526.439 97.0503 526.099 97.1281 525.757 97.1114L515.812 96.5958L505.859 96.0734C505.599 96.0597 505.338 96.101 505.094 96.1948C504.85 96.2885 504.629 96.4326 504.445 96.6176C504.261 96.8025 504.117 97.0243 504.024 97.2683C503.931 97.5124 503.891 97.7733 503.906 98.034L504.421 107.98L504.937 117.932C504.956 118.275 504.88 118.616 504.717 118.919C504.554 119.221 504.31 119.472 504.013 119.644C503.715 119.816 503.376 119.903 503.033 119.894C502.689 119.885 502.355 119.781 502.067 119.594L493.709 114.167L485.344 108.739C485.126 108.598 484.88 108.503 484.622 108.463C484.365 108.422 484.102 108.435 483.85 108.503C483.598 108.57 483.363 108.689 483.16 108.852C482.957 109.016 482.791 109.22 482.671 109.452L478.14 118.325L473.601 127.199C473.445 127.504 473.208 127.76 472.916 127.939C472.624 128.117 472.288 128.212 471.946 128.212C471.603 128.212 471.267 128.117 470.975 127.939C470.683 127.76 470.446 127.504 470.29 127.199L465.772 118.346L461.234 109.472C461.115 109.24 460.949 109.036 460.747 108.873C460.545 108.71 460.31 108.59 460.059 108.523C459.808 108.456 459.545 108.443 459.288 108.483C459.031 108.524 458.786 108.618 458.568 108.76L450.203 114.187L441.845 119.614C441.557 119.802 441.223 119.905 440.879 119.914C440.536 119.923 440.197 119.837 439.899 119.665C439.602 119.493 439.358 119.241 439.195 118.939C439.032 118.637 438.956 118.295 438.975 117.952L439.491 108L440.006 98.0544C440.022 97.793 439.982 97.5313 439.888 97.2868C439.794 97.0423 439.65 96.8206 439.463 96.6365C439.28 96.4519 439.059 96.3081 438.816 96.2146C438.573 96.1211 438.313 96.0799 438.052 96.0938L428.1 96.6161L418.155 97.1317C417.811 97.1494 417.47 97.0719 417.168 96.9078C416.866 96.7437 416.616 96.4995 416.444 96.202C416.272 95.9044 416.185 95.5652 416.194 95.2217C416.203 94.8782 416.306 94.5438 416.493 94.2553L421.92 85.8973L427.347 77.5393C427.49 77.3204 427.584 77.074 427.625 76.816C427.666 76.5581 427.652 76.2944 427.584 76.0423C427.516 75.7901 427.396 75.555 427.231 75.3524C427.067 75.1498 426.861 74.9842 426.628 74.8663L417.761 70.3345L408.833 65.7553C408.527 65.6001 408.269 65.363 408.089 65.0701C407.909 64.7773 407.813 64.4403 407.813 64.0966C407.813 63.7528 407.909 63.4158 408.089 63.123C408.269 62.8302 408.527 62.593 408.833 62.4379L417.707 57.9061L426.574 53.3675C426.807 53.25 427.012 53.0847 427.177 52.8825C427.342 52.6803 427.462 52.4457 427.53 52.1939C427.597 51.9411 427.61 51.6774 427.569 51.4193C427.528 51.1612 427.434 50.9144 427.293 50.6946L421.866 42.3366L416.438 33.9786C416.265 33.6895 416.174 33.3589 416.173 33.022C416.173 32.685 416.264 32.3543 416.436 32.0649C416.609 31.7755 416.857 31.5382 417.153 31.3782C417.45 31.2183 417.784 31.1416 418.121 31.1564L428.066 31.6787L438.018 32.1943C438.284 32.2116 438.55 32.1717 438.799 32.0773C439.047 31.9828 439.273 31.8361 439.46 31.6471C439.647 31.458 439.792 31.2309 439.884 30.9813C439.975 30.7316 440.013 30.4651 439.993 30.1998L439.477 20.2543L438.961 10.3021C438.941 9.95875 439.017 9.61653 439.18 9.31375C439.343 9.01097 439.587 8.75957 439.885 8.58773C440.183 8.41589 440.523 8.33039 440.866 8.34081C441.21 8.35123 441.544 8.45716 441.831 8.64673L450.189 14.074L458.554 19.5013C458.772 19.6444 459.017 19.7395 459.275 19.7805C459.532 19.8214 459.795 19.8072 460.046 19.7387C460.298 19.671 460.533 19.5516 460.737 19.3881C460.94 19.2246 461.107 19.0205 461.227 18.789L465.772 9.88822L470.311 1.02141C470.465 0.714404 470.701 0.456294 470.994 0.275924C471.286 0.0955546 471.623 3.05176e-05 471.966 3.05176e-05C472.31 3.05176e-05 472.646 0.0955546 472.939 0.275924C473.231 0.456294 473.467 0.714404 473.621 1.02141L478.16 9.88822L482.699 18.7618C482.82 18.9906 482.988 19.1913 483.192 19.3513C483.396 19.5113 483.631 19.6269 483.882 19.6908C484.133 19.7547 484.394 19.7654 484.65 19.7222C484.905 19.6791 485.149 19.583 485.365 19.4402L493.73 14.013L502.088 8.58568C502.374 8.39611 502.709 8.29017 503.052 8.27975C503.396 8.26933 503.736 8.35483 504.034 8.52667C504.332 8.69851 504.576 8.94991 504.739 9.25269C504.902 9.55547 504.978 9.89769 504.957 10.241L504.442 20.2543L503.926 30.2066C503.911 30.4669 503.951 30.7274 504.045 30.9708C504.139 31.2141 504.283 31.4347 504.469 31.6177C504.653 31.8023 504.873 31.9461 505.116 32.0396C505.36 32.1331 505.62 32.1743 505.88 32.1604L515.832 31.6448L525.744 31.1564C526.087 31.1388 526.428 31.2163 526.73 31.3803C527.032 31.5444 527.283 31.7886 527.455 32.0862C527.627 32.3837 527.713 32.7229 527.704 33.0664C527.696 33.4099 527.592 33.7443 527.406 34.0328L521.978 42.3908L516.551 50.7489C516.41 50.9687 516.316 51.2155 516.275 51.4736C516.234 51.7317 516.247 51.9954 516.314 52.2481C516.382 52.4999 516.502 52.7346 516.667 52.9368C516.832 53.139 517.037 53.3042 517.27 53.4218L526.151 57.9264L535.024 62.4582C535.331 62.6134 535.589 62.8505 535.769 63.1434C535.949 63.4362 536.044 63.7732 536.044 64.1169C536.044 64.4607 535.949 64.7977 535.769 65.0905C535.589 65.3833 535.331 65.6205 535.024 65.7756L535.031 65.7553Z" fill="#E9CF81"/>
<path d="M509.191 64.1204C509.19 72.7405 506.201 81.0938 500.732 87.757C495.264 94.4202 487.653 98.981 479.199 100.662C470.744 102.343 461.968 101.041 454.366 96.977C446.765 92.913 440.807 86.3388 437.509 78.3746C434.211 70.4104 433.776 61.549 436.279 53.3003C438.782 45.0516 444.068 37.9261 451.236 33.1379C458.404 28.3497 467.011 26.195 475.589 27.041C484.168 27.8871 492.187 31.6815 498.282 37.7777C501.746 41.2334 504.493 45.3396 506.365 49.8604C508.237 54.3811 509.197 59.2273 509.191 64.1204Z" fill="#255FA2"/>
</svg>
