<svg width="523" height="581" viewBox="0 0 523 581" fill="none" xmlns="http://www.w3.org/2000/svg">
<path d="M80.437 71.336C80.9807 74.5856 82.5101 83.4931 85.2493 94.5037C87.9885 105.514 91.924 118.628 97.2734 130.303C98.6328 133.2 100.06 136.409 101.902 139.869C103.985 143.821 106.308 147.643 108.856 151.314C110.983 154.387 112.397 156.151 114.035 158.172C115.673 160.194 117.515 162.453 120.519 166.51C123.524 170.567 125.957 174.244 128.051 177.534C130.144 180.825 131.755 183.64 132.979 185.872C134.755 189.807 136.475 193.877 138.138 198.083C139.801 202.289 141.387 206.665 142.896 211.211C149.663 231.77 153.852 253.088 155.368 274.676C156.605 292.348 156.2 310.096 154.158 327.694L149.19 330.109L144.262 332.49C144.071 322.056 143.677 309.105 142.841 294.58C142.005 280.056 140.741 263.971 138.804 247.261C138.042 240.715 137.132 233.612 135.48 225.993C133.688 217.62 131.087 209.441 127.711 201.57C125.461 196.347 122.987 191.557 120.866 187.738C118.745 183.918 116.978 181.069 116.108 179.726C113.031 174.852 109.707 170.138 106.15 165.601C103.343 162.039 101.256 159.692 100.454 158.763C96.3422 153.98 91.5094 146.226 86.1805 133.044C80.8516 119.863 75.1284 101.267 69.1877 74.8027L74.7885 73.0592L80.437 71.336Z" fill="#F4ECE5"/>
<path d="M151.378 81.1524L157.414 78.2285L163.443 75.3045C162.492 78.3166 161.459 81.8987 160.493 85.9963C159.528 90.0938 158.617 94.6935 157.917 99.7476C157.408 103.397 156.782 108.017 156.483 113.377C156.123 119.409 156.291 125.461 156.986 131.463C157.89 139.049 159.716 146.496 162.424 153.64C164.681 159.468 167.275 165.161 170.193 170.689C173.543 177.346 177.487 183.688 181.979 189.637C186.218 195.169 189.928 201.085 193.058 207.31C196.207 213.572 198.849 220.076 200.957 226.76C202.551 231.824 203.847 236.977 204.838 242.193L199.081 244.982L193.323 247.77C192.609 242.123 191.489 236.534 189.972 231.047C187.975 223.843 185.265 216.855 181.884 210.186C177.976 202.466 174.699 198.246 171.246 193.687C166.73 187.922 162.794 181.728 159.494 175.194C156.685 169.898 154.188 164.444 152.017 158.857C149.152 151.319 147.166 143.478 146.097 135.486C145.324 129.595 145.026 123.651 145.207 117.712C145.349 112.658 145.798 108.601 146.104 105.914C146.636 101.286 147.414 96.6888 148.435 92.1426C149.36 87.9636 150.386 84.2934 151.378 81.1524Z" fill="#F4ECE5"/>
<path d="M184.841 94.1779L156.089 88.3707L127.337 82.5635C127.113 82.5131 126.909 82.3992 126.748 82.2355C126.588 82.0718 126.478 81.8653 126.433 81.6409C126.375 81.4042 126.376 81.157 126.436 80.9207C126.495 80.6844 126.61 80.4659 126.773 80.2841L135.969 70.1079L145.166 59.9318C147.28 57.5652 149.946 55.7548 152.928 54.6605C155.773 53.6248 158.849 53.3901 161.819 53.9821C164.553 54.5424 167.1 55.7866 169.221 57.598C171.445 59.4901 173.198 61.8732 174.339 64.5585L180.293 78.3777L186.247 92.1902C186.347 92.4241 186.385 92.6792 186.359 92.9319C186.333 93.1845 186.243 93.4264 186.098 93.6352C185.967 93.8412 185.777 94.0032 185.553 94.1C185.329 94.1968 185.08 94.2239 184.841 94.1779Z" fill="#255FA2"/>
<path d="M118.303 62.4489L76.6237 74.2939L34.9506 86.1389C34.6239 86.225 34.2793 86.2159 33.9576 86.1124C33.6359 86.009 33.3507 85.8157 33.1358 85.5555C32.8981 85.2865 32.7308 84.963 32.649 84.6137C32.5671 84.2645 32.5732 83.9005 32.6668 83.5542L37.8938 64.2127L43.1207 44.878C44.303 40.3759 46.5846 36.2364 49.7615 32.8295C52.811 29.5746 56.6865 27.2045 60.9767 25.9708C64.9408 24.8563 69.1215 24.7513 73.1367 25.6655C77.3071 26.6214 81.1992 28.5277 84.5083 31.2352L101.61 45.0951L118.745 58.955C119.032 59.191 119.254 59.4961 119.39 59.8417C119.525 60.1872 119.57 60.5615 119.52 60.9292C119.488 61.2734 119.356 61.6007 119.14 61.8707C118.923 62.1408 118.633 62.3417 118.303 62.4489Z" fill="#255FA2"/>
<path d="M185.004 171.381L181.768 172.256L178.533 173.125C178.515 173.13 178.495 173.129 178.478 173.121C178.461 173.114 178.446 173.101 178.438 173.084C178.43 173.066 178.429 173.045 178.435 173.027C178.442 173.008 178.455 172.992 178.472 172.982C180.682 171.584 182.57 169.734 184.011 167.555C185.282 165.667 185.99 163.458 186.05 161.185C186.019 159.02 185.386 156.906 184.222 155.079C183.037 153.138 181.392 151.517 179.431 150.361C177.471 149.205 175.255 148.549 172.98 148.451C169.212 148.175 165.443 148.965 162.104 150.73C165.295 149.15 167.856 146.539 169.37 143.322C170.741 140.502 171.13 137.306 170.476 134.241C169.822 131.175 168.163 128.415 165.761 126.396C163.542 124.454 160.75 123.287 157.807 123.069C154.864 122.851 151.93 123.595 149.448 125.188C146.773 126.863 144.666 129.303 143.399 132.189C144.207 128.783 143.946 125.212 142.651 121.959C141.412 118.798 139.168 116.13 136.262 114.367C133.282 112.63 129.822 111.897 126.392 112.278C123.064 112.589 119.95 114.053 117.59 116.416C114.81 119.327 113.512 123.546 113.852 127.902C114.269 132.654 116.486 137.07 120.051 140.249C120.076 140.275 120.09 140.311 120.09 140.347C120.09 140.384 120.076 140.419 120.051 140.446C120.031 140.478 120 140.502 119.963 140.513C119.927 140.524 119.888 140.522 119.853 140.507C118.233 139.833 116.494 139.486 114.739 139.486C112.983 139.486 111.245 139.833 109.624 140.507C108.058 141.077 106.641 141.993 105.478 143.186C104.316 144.379 103.438 145.819 102.911 147.397C102.383 148.976 102.218 150.653 102.43 152.303C102.641 153.954 103.223 155.536 104.132 156.931C105.067 158.547 106.335 159.947 107.85 161.04C109.366 162.134 111.096 162.895 112.927 163.274C108.534 163.419 104.378 165.298 101.372 168.498C98.6532 171.442 97.1579 175.228 97.5249 178.776C97.9409 182.037 99.5805 185.019 102.113 187.12C104.873 189.498 108.348 190.89 111.989 191.075L108.659 191.978L105.335 192.873C103.155 193.458 101.112 194.467 99.3222 195.841C97.5329 197.215 96.0326 198.928 94.907 200.881C93.7814 202.834 93.0526 204.99 92.7624 207.224C92.4722 209.459 92.6262 211.729 93.2156 213.904C94.4046 218.295 97.2919 222.036 101.243 224.304C105.194 226.572 109.885 227.182 114.287 226L127.976 222.309L141.665 218.626L155.463 270.632L169.262 322.639L181.863 319.6L194.472 316.561L180.524 264.208L166.577 211.882L180.266 208.198L193.955 204.508C196.135 203.922 198.178 202.913 199.966 201.539C201.755 200.164 203.255 198.452 204.381 196.499C205.506 194.546 206.235 192.39 206.526 190.156C206.816 187.922 206.663 185.652 206.075 183.477C205.487 181.302 204.477 179.263 203.1 177.478C201.723 175.692 200.007 174.195 198.05 173.072C196.093 171.948 193.934 171.221 191.695 170.931C189.457 170.641 187.183 170.794 185.004 171.381Z" fill="#666538"/>
<path d="M166.577 211.882L159.868 213.497L153.153 215.118L162.274 222.696L171.396 230.274L168.99 221.081L166.577 211.882Z" fill="#353519"/>
<path d="M112.941 164.142C112.752 164.14 112.569 164.078 112.417 163.966C112.268 163.845 112.163 163.678 112.118 163.491C112.092 163.383 112.087 163.271 112.105 163.162C112.122 163.052 112.162 162.948 112.22 162.853C112.277 162.758 112.353 162.675 112.443 162.61C112.533 162.545 112.635 162.498 112.744 162.473L115.632 161.795L118.521 161.117C118.629 161.09 118.741 161.086 118.851 161.103C118.961 161.121 119.066 161.16 119.16 161.218C119.256 161.276 119.34 161.351 119.407 161.441C119.474 161.531 119.522 161.633 119.548 161.742C119.575 161.851 119.579 161.963 119.562 162.074C119.544 162.184 119.505 162.29 119.446 162.385C119.327 162.575 119.139 162.711 118.922 162.765L116.033 163.444L113.145 164.122C113.111 164.128 113.076 164.128 113.043 164.122L112.941 164.142Z" fill="#353519"/>
<path d="M161.166 178.355C160.976 178.356 160.791 178.291 160.643 178.172C160.488 178.057 160.38 177.891 160.337 177.704C160.311 177.596 160.306 177.484 160.324 177.375C160.341 177.265 160.38 177.16 160.439 177.066C160.496 176.97 160.572 176.887 160.662 176.82C160.752 176.754 160.854 176.706 160.962 176.679L169.969 174.508L178.975 172.344C179.082 172.317 179.194 172.311 179.304 172.327C179.414 172.344 179.519 172.382 179.614 172.439C179.805 172.559 179.942 172.749 179.994 172.969C180.022 173.076 180.028 173.187 180.011 173.297C179.995 173.407 179.957 173.512 179.899 173.606C179.78 173.8 179.59 173.939 179.369 173.993L170.37 176.157L161.363 178.301H161.261L161.166 178.355Z" fill="#353519"/>
<path d="M142.168 136.09H142.012L141.856 136.043C141.752 136.002 141.657 135.942 141.577 135.864C141.496 135.787 141.432 135.695 141.388 135.592C141.343 135.49 141.32 135.38 141.319 135.269C141.317 135.157 141.338 135.047 141.38 134.944L141.985 133.417L142.597 131.891C142.636 131.787 142.696 131.693 142.773 131.614C142.85 131.534 142.943 131.471 143.045 131.429C143.152 131.382 143.268 131.357 143.385 131.357C143.502 131.357 143.618 131.382 143.725 131.429C143.935 131.513 144.104 131.676 144.194 131.884C144.24 131.991 144.264 132.106 144.264 132.223C144.264 132.34 144.24 132.455 144.194 132.562L143.589 134.082L142.977 135.608C142.915 135.766 142.806 135.902 142.666 135.997C142.525 136.093 142.359 136.144 142.189 136.144L142.168 136.09Z" fill="#353519"/>
<path d="M64.0764 214.256H63.9948H63.92C64.8868 221.56 65.4767 228.907 65.6873 236.271C66.0135 243.638 66.299 251.006 67.2098 258.319C68.0505 265.703 69.8581 272.944 72.5863 279.859C75.3868 286.684 79.3291 292.911 84.8211 297.864C87.4499 300.238 90.3768 302.261 93.5282 303.881C96.6757 305.51 100.014 306.743 103.466 307.551C106.606 308.291 110.127 308.23 113.552 308.501C116.978 308.773 120.302 309.295 123.068 311.215C131.687 317.198 131.619 325.74 129.186 334.661C126.752 343.582 121.92 352.876 121.029 360.372C120.35 366.024 121.192 371.844 122.824 377.475C124.506 383.007 126.731 388.361 129.465 393.458C131.792 397.916 134.384 402.232 137.227 406.382C140.082 410.541 143.154 414.523 146.349 418.444C146.947 419.177 148.456 421.029 150.692 423.593C152.928 426.158 155.892 429.441 159.399 433.03C162.906 436.619 166.747 440.316 169.792 443.206C172.837 446.096 175.019 448.098 175.019 448.098L182.883 444.821L190.747 441.524C190.747 441.524 182.713 434.991 172.816 425.066C162.92 415.14 151.14 401.837 143.65 388.289C140.783 383.115 139.017 377.405 138.464 371.519C137.903 365.773 138.58 359.974 140.449 354.511C142.998 347.143 145.526 339.05 146.301 331.018C147.076 322.985 146.083 315.007 141.577 307.891C136.991 300.715 129.842 295.549 121.58 293.44C118.187 292.713 114.756 292.176 111.303 291.833C107.87 291.371 104.506 290.781 101.318 289.39C98.6872 288.203 96.2891 286.558 94.2351 284.533C92.1625 282.501 90.3663 280.207 88.8926 277.708C86.0938 272.893 84.114 267.648 83.0335 262.186C81.9396 256.682 81.2918 251.099 81.0963 245.49C80.838 239.914 80.804 234.303 80.5186 228.727C80.3134 223.154 79.6312 217.61 78.4794 212.153L71.2677 213.191L64.0764 214.256Z" fill="#BAB653"/>
<path d="M65.001 225.613L72.9808 233.652L80.9538 241.692C80.9538 241.692 80.8518 237.139 80.6751 232.268C80.4984 227.397 80.2401 222.228 79.9274 221L74.6189 216.719L69.3035 212.438L67.1557 219.005L65.001 225.613Z" fill="#353519"/>
<path d="M35.7598 172.785C32.8499 172.03 29.7844 172.12 26.9236 173.043C24.1338 173.934 21.6821 175.652 19.8954 177.968C18.0231 180.448 16.9366 183.429 16.7755 186.53C16.5511 189.722 17.5909 192.874 19.6711 195.309C21.2291 197.058 23.2507 198.333 25.503 198.986C27.8674 199.676 30.3665 199.769 32.7759 199.257C29.4266 199.973 26.4486 201.872 24.3883 204.603C22.3655 207.276 21.3978 210.599 21.6694 213.938C21.9622 217.291 23.4645 220.425 25.8972 222.757C28.2385 225.041 31.3527 226.365 34.6247 226.468C37.6303 226.48 40.5451 225.44 42.8628 223.53C44.1089 222.561 45.2098 221.419 46.1322 220.138C46.2924 221.924 46.7138 223.678 47.3829 225.342C48.5866 228.523 50.818 231.213 53.7246 232.987C56.6005 234.661 59.9232 235.41 63.2405 235.131C66.5917 234.903 69.746 233.469 72.1175 231.095C73.7825 229.358 74.9553 227.211 75.5161 224.874C75.8639 223.476 76.0284 222.04 76.0055 220.6C77.7181 223.752 80.216 226.411 83.258 228.32C86.0479 230.096 89.3273 230.951 92.6312 230.762C94.2202 230.663 95.7864 230.334 97.2804 229.785C99.8959 228.861 102.128 227.092 103.622 224.758C105.161 222.24 105.778 219.267 105.369 216.346C105.192 214.835 104.794 213.358 104.186 211.964C107.353 213.727 111.056 214.274 114.599 213.504C117.953 212.802 120.91 210.843 122.858 208.029C124.641 205.328 125.331 202.052 124.788 198.863C124.329 195.829 122.984 192.998 120.921 190.723C119.476 189.183 117.707 187.983 115.741 187.208C114.503 186.715 113.209 186.373 111.887 186.191C113.35 185.552 114.722 184.721 115.966 183.721C117.885 182.217 119.36 180.222 120.234 177.948C121.696 174.013 121.063 169.454 118.997 165.587C118.001 163.631 116.619 161.894 114.935 160.483C113.251 159.071 111.299 158.013 109.196 157.372C105.992 156.548 102.607 156.786 99.5506 158.05C97.8202 158.729 96.1917 159.642 94.7111 160.764C95.2212 158.987 95.4999 157.151 95.5403 155.303C95.6407 152.498 94.9557 149.721 93.5624 147.284C90.9387 142.854 85.8205 140.093 80.3964 139.333C74.9723 138.573 69.2287 139.828 65.3476 143.437C63.049 145.654 61.4656 148.505 60.8004 151.626C60.356 153.553 60.164 155.531 60.2294 157.508C58.8516 154.62 56.7431 152.142 54.112 150.316C51.6161 148.573 48.6549 147.614 45.6088 147.562C41.4674 147.609 37.4905 149.187 34.448 151.992C31.4505 154.706 29.5133 158.403 29.69 162.27C29.8127 164.896 30.7563 167.418 32.3885 169.482C33.3644 170.724 34.4976 171.834 35.7598 172.785Z" fill="#DEB8FC"/>
<path d="M62.6966 177.507C60.5113 176.283 58.0802 175.56 55.58 175.39C54.3268 175.308 53.0705 175.496 51.8972 175.944C50.724 176.391 49.6616 177.086 48.7829 177.982C47.5939 179.178 46.8063 180.714 46.5287 182.376C46.2511 184.038 46.4973 185.746 47.2331 187.263C47.9079 188.807 48.9671 190.154 50.3103 191.175C51.6534 192.197 53.2357 192.858 54.9071 193.097C54.7303 193.097 54.3769 193.395 54.037 193.775C53.6972 194.155 53.3573 194.528 53.2826 194.637C52.4719 195.504 51.8542 196.533 51.47 197.655C51.0858 198.778 50.9437 199.969 51.0531 201.15C51.1761 202.329 51.5601 203.467 52.1772 204.481C52.7943 205.494 53.6292 206.359 54.6216 207.011C56.6199 208.368 59.2368 208.51 61.7042 207.893C64.103 207.319 66.2686 206.027 67.9099 204.189C68.6391 203.25 69.3023 202.262 69.8947 201.231C70.4928 200.227 70.9278 199.413 70.9278 199.413C72.5184 202.283 73.5039 203.904 74.1021 204.84C74.3308 205.228 74.5947 205.593 74.8906 205.932C75.6922 206.673 76.5936 207.299 77.5686 207.791C79.4128 208.787 81.5294 209.163 83.6044 208.863C84.1455 208.774 84.6777 208.638 85.195 208.456C86.5358 207.972 87.7531 207.199 88.76 206.192C89.767 205.185 90.5387 203.968 91.0201 202.629C91.4446 201.58 91.6313 200.45 91.5667 199.32C91.502 198.191 91.1877 197.089 90.6462 196.095C90.1392 195.288 89.5639 194.525 88.9266 193.816C88.3216 193.138 87.8187 192.615 87.8187 192.615L88.7431 192.378L89.5587 192.161C90.76 191.815 91.8802 191.234 92.8536 190.452C93.827 189.669 94.6341 188.7 95.2275 187.602C95.8515 186.507 96.2451 185.297 96.3842 184.045C96.5233 182.794 96.4049 181.527 96.0363 180.322C95.5712 178.882 94.7231 177.594 93.5823 176.596C92.4416 175.598 91.0509 174.929 89.5587 174.658C88.0678 174.345 86.5274 174.354 85.04 174.683C83.5527 175.011 82.1526 175.653 80.9332 176.564C81.0847 176.076 81.1961 175.577 81.2662 175.072C81.3604 174.397 81.3854 173.715 81.341 173.036C81.1886 171.123 80.4799 169.296 79.3019 167.779C78.6978 166.972 77.9866 166.251 77.188 165.635C75.6008 164.473 73.7436 163.733 71.7911 163.484C69.7016 163.181 67.5727 163.641 65.796 164.78C64.2876 165.806 63.1282 167.266 62.4722 168.966C62.1094 169.833 61.8692 170.746 61.7586 171.679C61.7079 172.228 61.7079 172.78 61.7586 173.328C61.7952 173.754 61.8588 174.178 61.9489 174.597C61.9897 174.841 62.0644 175.526 62.1868 176.171C62.3091 176.815 62.479 177.392 62.6966 177.507Z" fill="#255FA2"/>
<path d="M115.129 296.127C115.129 296.127 114.993 283.821 116.122 268.611C117.25 253.401 119.649 235.287 124.72 223.646C125.861 220.896 127.914 218.621 130.534 217.201C133.155 215.781 136.184 215.302 139.116 215.844C142.058 216.285 144.754 217.732 146.747 219.937C148.739 222.141 149.902 224.968 150.039 227.933C150.23 231.811 149.857 235.696 148.931 239.466C147.61 244.933 145.743 250.253 143.358 255.348L134.44 278.027L125.508 300.754C124.672 300.139 123.788 299.592 122.864 299.119C120.408 297.833 117.813 296.829 115.129 296.127Z" fill="#BAB653"/>
<path d="M121.756 294.248H121.654H121.553C121.444 294.221 121.342 294.173 121.252 294.107C121.162 294.041 121.086 293.957 121.029 293.861C120.971 293.767 120.931 293.662 120.914 293.553C120.896 293.443 120.901 293.331 120.927 293.223L129.165 259.398L137.403 225.579C137.428 225.471 137.475 225.369 137.54 225.279C137.605 225.189 137.688 225.114 137.784 225.057C137.927 224.969 138.094 224.925 138.262 224.931C138.43 224.938 138.593 224.994 138.729 225.093C138.866 225.192 138.969 225.329 139.027 225.487C139.085 225.645 139.095 225.816 139.055 225.979L130.837 259.778L122.579 293.63C122.533 293.817 122.425 293.982 122.273 294.099C122.122 294.205 121.941 294.257 121.756 294.248Z" fill="#666538"/>
<path d="M371.863 74.4567C371.115 76.994 369.09 83.9545 367.2 92.8891C365.31 101.824 363.543 112.672 363.305 122.983C363.251 125.541 363.183 128.35 363.305 131.518C363.423 135.106 363.759 138.683 364.311 142.23C364.767 145.195 365.168 146.979 365.671 149.014C366.174 151.049 366.684 153.329 367.424 157.311C368.165 161.293 368.655 164.814 368.995 167.914C369.334 171.015 369.518 173.64 369.627 175.676C369.532 179.135 369.341 182.686 369.056 186.327C368.763 189.963 368.376 193.681 367.859 197.473C365.526 214.706 361.062 231.585 354.571 247.723C349.254 260.931 342.724 273.619 335.063 285.625H326.227C329.755 278.014 334.023 268.516 338.523 257.722C343.023 246.929 347.76 234.86 352.233 222.099C353.987 217.099 355.822 211.645 357.31 205.559C358.954 198.887 359.944 192.071 360.267 185.207C360.478 180.641 360.376 176.313 360.185 172.806C359.995 169.298 359.717 166.626 359.581 165.343C359.068 160.74 358.322 156.167 357.344 151.639C356.569 148.085 355.883 145.656 355.631 144.699C354.34 139.808 353.592 132.488 354.381 121.125C355.169 109.761 357.555 94.2799 362.537 73.0524L367.2 73.7308L371.863 74.4567Z" fill="#F4ECE5"/>
<path d="M404.91 155.757H415.691C413.944 157.596 411.939 159.828 409.798 162.446C407.657 165.065 405.38 168.084 403.102 171.489C401.451 173.952 399.371 177.073 397.271 180.838C394.894 185.075 392.89 189.511 391.282 194.094C389.265 199.891 387.964 205.913 387.408 212.024C386.996 217.029 386.871 222.053 387.034 227.072C387.114 233.058 387.738 239.026 388.897 244.9C390.015 250.382 390.618 255.955 390.698 261.548C390.771 267.18 390.391 272.809 389.563 278.38C388.941 282.607 388.068 286.794 386.946 290.917H376.662C378.125 286.581 379.276 282.146 380.108 277.647C381.202 271.732 381.705 265.724 381.61 259.71C381.518 254.457 380.882 249.229 379.714 244.106C378.48 238.358 377.813 232.502 377.722 226.624C377.557 221.811 377.673 216.993 378.069 212.194C378.645 205.732 379.965 199.358 382.004 193.199C383.515 188.667 385.388 184.263 387.605 180.031C389.488 176.428 391.235 173.654 392.363 171.815C394.378 168.648 396.558 165.588 398.895 162.65C401.057 159.984 403.089 157.684 404.91 155.757Z" fill="#F4ECE5"/>
<path d="M426.07 176.211L406.481 163.125L386.892 150.038C386.739 149.934 386.621 149.786 386.552 149.615C386.483 149.444 386.466 149.256 386.504 149.075C386.534 148.879 386.611 148.694 386.73 148.535C386.848 148.377 387.004 148.25 387.184 148.166L397.128 143.417L407.079 138.668C409.373 137.55 411.909 137.017 414.461 137.115C416.886 137.218 419.237 137.983 421.258 139.326C423.119 140.574 424.632 142.273 425.655 144.265C426.717 146.349 427.283 148.65 427.307 150.988L427.498 163.07L427.695 175.153C427.696 175.358 427.646 175.56 427.549 175.74C427.451 175.92 427.31 176.073 427.137 176.184C426.982 176.293 426.798 176.354 426.608 176.358C426.418 176.363 426.231 176.312 426.07 176.211Z" fill="#255FA2"/>
<path d="M402.361 81.2882L368.056 75.2639L333.758 69.2329C333.493 69.1788 333.248 69.0506 333.053 68.8632C332.858 68.6758 332.721 68.437 332.657 68.1745C332.581 67.8965 332.574 67.6041 332.636 67.3227C332.699 67.0413 332.83 66.7795 333.017 66.5599L343.587 54.4096L354.163 42.2661C356.601 39.4273 359.704 37.2342 363.196 35.8822C366.546 34.5953 370.182 34.2389 373.718 34.8511C376.976 35.4278 380.036 36.8136 382.615 38.8808C385.296 41.0315 387.439 43.7742 388.876 46.8928L396.393 62.9101L403.911 78.9273C404.035 79.1981 404.088 79.4961 404.064 79.793C404.04 80.0899 403.941 80.3758 403.775 80.6234C403.63 80.8594 403.418 81.048 403.167 81.1661C402.916 81.2842 402.636 81.3266 402.361 81.2882Z" fill="#255FA2"/>
<path d="M262.151 135.14L279.246 134.991L296.347 134.842C301.571 133.951 306.286 131.18 309.602 127.054C312.918 122.976 314.612 117.822 314.36 112.577C314.081 107.061 311.682 103.079 307.95 100.426C304.218 97.7736 299.114 96.4575 293.526 96.2743C296.824 97.0323 300.272 96.8179 303.45 95.657C306.456 94.5757 309.036 92.562 310.812 89.9108C312.702 86.9683 313.478 83.4487 313 79.9857C312.664 77.0267 311.532 74.2136 309.724 71.8448C306.801 68.2153 302.573 66.1461 297.999 65.0607C293.462 64.0733 288.807 63.7329 284.174 64.0498C284.085 64.0498 283.419 64.0499 282.773 64.1177C282.337 64.1053 281.903 64.1696 281.489 64.3076H281.353C281.285 64.3076 281.217 64.3076 281.21 64.3076C281.203 64.3076 283.773 63.6292 287.096 62.2249C290.42 60.8206 294.492 58.6836 297.448 55.5154C299.38 53.4168 300.844 50.9336 301.744 48.2293C302.767 45.3922 302.767 42.2879 301.744 39.4507C301 37.6228 299.816 36.0059 298.298 34.7425C297.368 33.9523 296.351 33.2695 295.267 32.7073C289.36 29.5663 282.352 30.1361 276.717 31.5744C273.1 32.4643 269.619 33.8333 266.365 35.6448C267.616 26.7509 266.848 18.7999 264.632 12.6806C262.416 6.56139 258.753 2.27384 254.226 0.693142C252.222 0.0143543 250.083 -0.16954 247.993 0.157202C246.906 0.306144 245.842 0.588699 244.825 0.998429C240.4 2.85049 236.988 7.29407 235.119 13.4337C233.25 19.5733 232.91 27.4021 234.63 36.0383C230.458 34.9322 226.177 34.2906 221.865 34.1252C215.645 33.9488 208.739 35.041 205.001 39.8645C204.663 40.2945 204.357 40.748 204.083 41.2214C203.786 41.7424 203.527 42.2843 203.309 42.8428C202.808 44.3301 202.524 45.8813 202.466 47.4492C202.428 48.5567 202.531 49.6645 202.772 50.7462C203.533 54.1383 205.66 57.1979 208.821 59.7216C212.439 62.4763 216.614 64.4137 221.056 65.3999C216.712 65.0132 211.166 64.9521 206.102 66.214C201.038 67.4758 196.484 70.0402 194.119 74.9248C192.813 77.6352 192.358 80.6762 192.814 83.6491C193.262 86.6359 194.557 89.4325 196.545 91.7086C198.622 94.0555 201.17 95.9414 204.022 97.2444C208.195 99.0949 212.692 100.109 217.256 100.229L221.43 100.121L225.603 100.012C224.074 100.155 222.619 100.236 221.233 100.27C219.846 100.304 218.514 100.27 217.256 100.229L211.295 100.392L205.334 100.548C200.692 100.679 196.262 102.518 192.895 105.711C189.522 108.881 187.514 113.235 187.295 117.855C187.172 120.355 187.568 122.853 188.458 125.193C189.348 127.534 190.712 129.665 192.465 131.455C194.219 133.244 196.324 134.653 198.648 135.593C200.972 136.533 203.466 136.984 205.973 136.918L219.683 136.423L233.386 135.934L233.569 194.277L233.746 252.621H262.294C262.294 242.445 262.253 218.137 262.233 193.864C262.212 169.59 262.171 145.35 262.151 135.14Z" fill="#BAB653"/>
<path d="M262.036 135.032H253.995H245.954L253.995 147.426L262.036 159.828V147.426V135.032Z" fill="#353519"/>
<path d="M281.502 65.298H274.025C273.891 65.2998 273.758 65.2742 273.634 65.2229C273.51 65.1716 273.398 65.0955 273.305 64.9995C273.21 64.9053 273.135 64.7932 273.083 64.6698C273.032 64.5464 273.006 64.414 273.006 64.2803C273.007 64.0107 273.114 63.7523 273.305 63.5612C273.399 63.4664 273.512 63.3912 273.635 63.34C273.759 63.2887 273.892 63.2625 274.025 63.2627H281.502C281.636 63.2625 281.769 63.2887 281.892 63.34C282.016 63.3912 282.128 63.4664 282.223 63.5612C282.413 63.7523 282.521 64.0107 282.522 64.2803C282.522 64.414 282.496 64.5464 282.444 64.6698C282.393 64.7932 282.318 64.9053 282.223 64.9995C282.129 65.0955 282.017 65.1716 281.893 65.2229C281.769 65.2742 281.636 65.2998 281.502 65.298Z" fill="#666538"/>
<path d="M237.172 39.4846C237.044 39.4857 236.917 39.4627 236.798 39.4167C236.674 39.3663 236.561 39.2926 236.465 39.1997L235.2 37.9853L233.936 36.7642C233.742 36.577 233.63 36.3211 233.624 36.0518C233.62 35.9179 233.643 35.7846 233.692 35.6599C233.741 35.5352 233.815 35.4216 233.909 35.3259C234.097 35.1323 234.353 35.0202 234.623 35.0139C234.757 35.0102 234.89 35.0335 235.015 35.0824C235.14 35.1314 235.254 35.205 235.35 35.2988L236.614 36.5199L237.879 37.7343C237.977 37.8269 238.055 37.9383 238.109 38.0619C238.162 38.1855 238.19 38.3187 238.191 38.4534C238.195 38.5863 238.171 38.7185 238.122 38.8421C238.073 38.9657 238 39.0781 237.906 39.1725C237.81 39.2738 237.694 39.3546 237.566 39.41C237.44 39.4582 237.306 39.4834 237.172 39.4846Z" fill="#666538"/>
<path d="M224.44 100.026L220.267 100.134L216.093 100.243C217.351 100.304 218.676 100.324 220.07 100.284C221.463 100.243 222.911 100.168 224.44 100.026Z" fill="#BAB653"/>
<path d="M222.884 101.145H210.364C210.23 101.147 210.096 101.121 209.973 101.07C209.849 101.019 209.737 100.943 209.643 100.847C209.548 100.752 209.473 100.64 209.421 100.517C209.37 100.394 209.344 100.261 209.344 100.128C209.345 99.8579 209.453 99.5995 209.643 99.4084C209.738 99.3136 209.85 99.2384 209.973 99.1872C210.097 99.1359 210.23 99.1097 210.364 99.1099H222.891C223.163 99.1106 223.424 99.2178 223.618 99.4084C223.807 99.6002 223.912 99.8587 223.91 100.128C223.911 100.261 223.885 100.394 223.835 100.518C223.784 100.642 223.709 100.754 223.614 100.849C223.519 100.944 223.406 101.019 223.282 101.07C223.158 101.12 223.025 101.146 222.891 101.145H222.884Z" fill="#666538"/>
<path d="M201.392 199.63C201.443 204.368 202.154 209.076 203.506 213.619C204.844 218.187 206.962 222.49 209.766 226.339C211.648 228.882 213.861 231.163 216.346 233.123C218.819 235.092 221.567 236.692 224.502 237.872C227.619 239.153 231.003 239.654 234.358 239.331C237.698 238.928 240.966 238.067 244.071 236.773C246.281 235.862 248.63 235.334 251.018 235.213C253.408 235.112 255.764 235.809 257.713 237.194C259.633 238.632 261.2 240.488 262.294 242.621C263.404 244.735 264.264 246.971 264.856 249.283L266.42 254.771L267.99 260.253L273.489 258.787L278.988 257.322C279.3 257.241 278.539 254.351 277.628 251.345C276.717 248.34 275.732 245.24 275.535 244.717C274.474 241.93 273.159 239.246 271.606 236.698C270.078 234.152 268.227 231.813 266.1 229.738C264.521 228.218 262.742 226.919 260.812 225.878C258.884 224.827 256.786 224.124 254.613 223.802C252.15 223.518 249.655 223.712 247.266 224.372C244.853 224.962 242.508 225.817 240.142 226.509C237.744 227.23 235.243 227.549 232.74 227.452C230.237 227.362 227.782 226.737 225.542 225.62C218.534 222.065 215.346 215.308 213.953 207.798C212.56 200.288 212.995 192.018 213.219 185.411C213.334 182.175 213.484 178.626 213.688 174.8C213.892 170.974 214.137 166.876 214.456 162.528L208.712 161.965L202.962 161.402C202.568 165.544 202.239 169.805 201.976 174.183C201.714 178.561 201.535 183.047 201.44 187.643C201.392 189.678 201.372 191.713 201.365 193.701C201.358 195.688 201.365 197.676 201.392 199.63Z" fill="#BAB653"/>
<path d="M213.083 199.61L213.049 196.557V193.511V193.043C213.049 192.914 213.049 192.805 213.049 192.69C213.049 192.425 213.049 192.073 213.049 191.564C213.049 191.055 213.049 190.404 213.096 189.528C213.212 186.048 213.361 183.945 213.47 182.175C213.579 180.404 213.66 178.966 213.626 176.802C213.626 175.445 213.552 174.854 213.491 174.122C213.429 173.389 213.355 172.514 213.28 170.601C213.198 168.484 213.171 166.53 213.178 164.889C213.185 163.247 213.219 161.775 213.259 160.635L206.612 161.205L199.958 161.782C199.958 163.722 200.032 166.266 200.08 168.952C200.127 171.639 200.182 174.454 200.229 176.971C200.338 182.914 200.42 187.412 200.596 191.394C200.773 195.376 201.025 198.857 201.48 202.744C201.602 203.768 201.725 204.698 201.834 205.512C201.942 206.326 202.037 207.018 202.119 207.547L210.276 201.611L213.076 199.576L213.083 199.61Z" fill="#353519"/>
<path d="M219.017 224.1C216.687 221.42 213.505 219.621 210.004 219.005C207.472 218.512 204.858 218.635 202.384 219.365C202.316 218.992 202.234 218.625 202.139 218.259C201.695 216.593 200.912 215.036 199.84 213.684C198.767 212.333 197.427 211.216 195.903 210.404C194.38 209.591 192.705 209.1 190.983 208.961C189.261 208.822 187.529 209.038 185.894 209.596C185.025 209.887 184.187 210.264 183.393 210.722C182.544 208.15 180.827 205.951 178.535 204.502C176.243 203.054 173.518 202.444 170.825 202.778C169.502 202.937 168.228 203.377 167.09 204.068C165.952 204.76 164.975 205.687 164.225 206.786C163.475 207.886 162.971 209.133 162.744 210.444C162.518 211.755 162.576 213.099 162.913 214.385C163.626 217.135 165.316 219.533 167.668 221.132C170.02 222.73 172.874 223.421 175.699 223.076C175.889 223.076 176.072 223.001 176.256 222.967C176.247 224.228 176.412 225.483 176.745 226.699C177.188 228.369 177.97 229.931 179.044 231.286C180.118 232.641 181.461 233.761 182.988 234.575C184.515 235.389 186.193 235.881 187.919 236.018C189.645 236.156 191.38 235.937 193.018 235.375C193.85 235.087 194.651 234.717 195.41 234.27C195.802 234.953 196.257 235.598 196.77 236.196C199.132 238.833 202.3 240.619 205.782 241.278C209.265 241.936 212.867 241.431 216.033 239.839C217.442 239.166 218.673 238.172 219.627 236.936C220.58 235.7 221.228 234.258 221.519 232.725C221.811 231.193 221.736 229.614 221.303 228.115C220.869 226.617 220.088 225.242 219.023 224.1H219.017Z" fill="#BAB653"/>
<path d="M213.803 231.4H213.701H213.599C210.982 230.722 208.365 230.043 205.769 229.263C203.172 228.483 200.603 227.628 198.075 226.719C191.989 224.518 186.046 221.942 180.28 219.005C174.478 216.076 168.862 212.793 163.464 209.175C163.371 209.113 163.291 209.033 163.229 208.94C163.168 208.847 163.125 208.742 163.104 208.632C163.062 208.411 163.108 208.183 163.233 207.995C163.361 207.811 163.556 207.684 163.776 207.642C163.886 207.619 163.999 207.618 164.108 207.638C164.218 207.659 164.322 207.702 164.415 207.764C169.757 211.35 175.314 214.606 181.055 217.513C186.755 220.406 192.63 222.944 198.646 225.111C201.151 226.016 203.691 226.852 206.265 227.621C208.828 228.395 211.417 229.107 214.007 229.738C214.224 229.797 214.411 229.935 214.53 230.125C214.644 230.319 214.678 230.55 214.626 230.769C214.58 230.955 214.472 231.12 214.32 231.237C214.169 231.345 213.988 231.402 213.803 231.4Z" fill="#666538"/>
<path d="M221.796 120.48C230.463 105.643 230.667 95.9894 226.928 93.832C223.19 91.6747 215.516 97.0205 208.406 112.19C208.726 94.8632 203.852 86.7155 199.42 87.6313C194.989 88.5472 190.999 98.5198 193.065 117.441C183.916 100.48 174.856 94.585 170.757 96.5457C166.658 98.5063 167.508 108.323 178.186 122.8C163.321 114.157 153.642 113.947 151.487 117.678C149.332 121.409 154.682 129.069 169.88 136.165C152.52 135.853 144.357 140.71 145.275 145.133C146.192 149.557 156.15 153.539 175.141 151.476C158.148 160.608 152.242 169.651 154.206 173.749C156.17 177.846 166.006 176.991 180.511 166.334C171.851 181.171 171.641 190.824 175.379 192.982C179.117 195.139 186.791 189.793 193.901 174.624C193.588 191.944 198.455 200.091 202.887 199.182C207.319 198.273 211.308 188.328 209.242 169.373C218.391 186.333 227.452 192.229 231.557 190.268C235.662 188.307 234.806 178.484 224.128 164.007C238.993 172.656 248.665 172.86 250.827 169.136C252.988 165.411 247.625 157.738 232.434 150.642C249.787 150.961 257.95 146.097 257.039 141.68C256.129 137.264 246.13 133.268 227.173 135.337C244.166 126.199 250.072 117.156 248.108 113.065C246.144 108.974 236.301 109.822 221.796 120.48Z" fill="#F4ECE5"/>
<path d="M211.078 141.124C211.798 143.66 211.616 146.367 210.562 148.783C209.507 151.2 207.646 153.178 205.295 154.379C202.944 155.58 200.249 155.931 197.668 155.371C195.087 154.811 192.78 153.376 191.141 151.31C189.501 149.244 188.629 146.674 188.674 144.038C188.72 141.403 189.679 138.864 191.388 136.855C193.098 134.846 195.453 133.491 198.051 133.02C200.65 132.549 203.332 132.991 205.64 134.272C206.954 135 208.111 135.98 209.045 137.156C209.978 138.332 210.669 139.68 211.078 141.124Z" fill="#DEB8FC"/>
<path d="M358.072 142.671L354.721 142.759L351.37 142.847C351.322 142.847 351.295 142.847 351.295 142.786C351.291 142.767 351.294 142.747 351.304 142.731C351.314 142.714 351.33 142.703 351.349 142.698C353.824 141.86 356.094 140.51 358.01 138.736C359.682 137.194 360.881 135.211 361.47 133.017C361.952 130.908 361.834 128.706 361.13 126.66C360.76 125.515 360.246 124.42 359.601 123.404C357.735 120.606 354.96 118.536 351.743 117.542C348.156 116.409 344.322 116.303 340.678 117.237C344.149 116.445 347.251 114.506 349.48 111.735C351.478 109.316 352.61 106.301 352.696 103.167C352.782 100.033 351.818 96.9603 349.956 94.4356C348.257 92.0093 345.808 90.2061 342.984 89.3029C340.16 88.3997 337.117 88.4464 334.322 89.4357C331.339 90.4541 328.729 92.3423 326.832 94.8562C328.431 91.7184 329.019 88.1645 328.518 84.6801C328.046 81.336 326.489 78.2383 324.086 75.8608C321.604 73.4708 318.413 71.9475 314.991 71.5189C311.687 71.0417 308.32 71.7354 305.476 73.4795C302.077 75.6505 299.82 79.4496 299.141 83.771C298.425 88.4861 299.541 93.2959 302.261 97.2171C302.288 97.2471 302.302 97.2864 302.301 97.3268C302.299 97.3671 302.282 97.4054 302.253 97.4335C302.224 97.4616 302.185 97.4773 302.145 97.4775C302.104 97.4776 302.065 97.4621 302.036 97.4342C300.619 96.3994 299.011 95.6551 297.304 95.244C295.597 94.833 293.826 94.7635 292.092 95.0394C290.493 95.2575 288.956 95.8041 287.579 96.6449C286.202 97.4856 285.015 98.6021 284.092 99.924C283.194 101.372 282.621 102.996 282.412 104.686C282.203 106.376 282.363 108.091 282.882 109.713C283.414 111.5 284.318 113.154 285.533 114.568C286.749 115.983 288.25 117.125 289.937 117.922C287.804 117.478 285.603 117.457 283.462 117.862C281.321 118.268 279.28 119.09 277.458 120.283C274.059 122.501 271.776 125.839 271.293 129.374C270.947 132.626 271.848 135.889 273.815 138.505C275.936 141.466 278.985 143.636 282.481 144.672L279.035 144.76L275.589 144.855C273.33 144.916 271.105 145.42 269.042 146.34C266.979 147.259 265.117 148.576 263.564 150.214C262.011 151.852 260.797 153.78 259.991 155.887C259.185 157.994 258.804 160.239 258.868 162.494C258.989 167.042 260.915 171.356 264.223 174.487C267.531 177.618 271.949 179.31 276.506 179.189L290.678 178.809L304.85 178.436L306.033 232.221L307.209 286.005H333.147L331.896 231.881L330.672 177.724L344.844 177.344L359.016 176.971C361.276 176.911 363.501 176.407 365.565 175.488C367.629 174.569 369.492 173.253 371.045 171.614C372.599 169.976 373.814 168.048 374.62 165.94C375.426 163.833 375.808 161.587 375.744 159.332C375.684 157.077 375.179 154.856 374.258 152.796C373.337 150.736 372.018 148.877 370.377 147.326C368.735 145.776 366.804 144.563 364.692 143.758C362.581 142.954 360.331 142.573 358.072 142.637V142.671Z" fill="#666538"/>
<path d="M330.638 177.724H323.732H316.827L323.909 187.229L330.998 196.733L330.815 187.229L330.638 177.724Z" fill="#353519"/>
<path d="M295.871 118.777H289.931C289.818 118.777 289.707 118.755 289.603 118.712C289.499 118.669 289.405 118.606 289.326 118.526C289.207 118.407 289.127 118.256 289.095 118.091C289.063 117.927 289.08 117.757 289.145 117.602C289.21 117.447 289.319 117.315 289.459 117.223C289.598 117.13 289.763 117.081 289.931 117.081H295.871C296.04 117.079 296.205 117.127 296.346 117.22C296.487 117.312 296.597 117.445 296.661 117.601C296.726 117.757 296.742 117.928 296.708 118.093C296.674 118.258 296.59 118.409 296.469 118.526C296.392 118.606 296.299 118.67 296.196 118.713C296.093 118.756 295.983 118.778 295.871 118.777Z" fill="#353519"/>
<path d="M351.988 143.885H333.459C333.234 143.885 333.017 143.796 332.858 143.637C332.699 143.478 332.609 143.262 332.609 143.037C332.611 142.813 332.701 142.598 332.86 142.439C333.019 142.281 333.234 142.191 333.459 142.189H351.988C352.099 142.189 352.209 142.212 352.312 142.255C352.415 142.298 352.508 142.361 352.586 142.44C352.666 142.518 352.729 142.61 352.773 142.713C352.816 142.815 352.838 142.926 352.837 143.037C352.838 143.149 352.816 143.26 352.772 143.364C352.729 143.468 352.666 143.562 352.586 143.641C352.426 143.796 352.211 143.884 351.988 143.885Z" fill="#353519"/>
<path d="M324.935 98.3503C324.851 98.3495 324.766 98.3381 324.684 98.3164C324.599 98.2881 324.519 98.2469 324.446 98.1943C324.354 98.1305 324.277 98.0489 324.217 97.9546C324.157 97.8602 324.117 97.7548 324.099 97.6448C324.079 97.5354 324.081 97.4231 324.106 97.3147C324.13 97.2062 324.177 97.1039 324.242 97.0138L325.194 95.657L326.139 94.3002C326.269 94.1169 326.466 93.9925 326.688 93.9544C326.909 93.9162 327.137 93.9674 327.321 94.0967C327.505 94.2264 327.629 94.4235 327.668 94.6448C327.706 94.8661 327.655 95.0935 327.525 95.2771L326.58 96.6339L325.629 97.9908C325.551 98.1053 325.446 98.1986 325.323 98.2621C325.203 98.3217 325.07 98.3519 324.935 98.3503Z" fill="#353519"/>
<path d="M291.249 187.174C291.467 187.107 291.677 187.025 291.929 186.944C292.18 186.862 292.364 186.761 292.609 186.659C293.74 186.127 294.792 185.442 295.735 184.624C297.242 183.354 298.252 181.596 298.59 179.658C298.879 177.715 298.493 175.733 297.496 174.04C296.515 172.325 295.049 170.938 293.281 170.051C291.698 169.272 289.928 168.948 288.17 169.115C286.386 169.278 284.676 169.903 283.208 170.927C284.172 170.021 284.989 168.97 285.628 167.813C286.464 166.307 286.888 164.608 286.858 162.887C286.792 160.537 285.932 158.278 284.418 156.476C282.836 154.576 280.696 153.218 278.301 152.596C277.11 152.385 275.895 152.34 274.691 152.46C272.514 152.631 270.451 153.502 268.812 154.943C266.924 156.722 265.774 159.143 265.59 161.727C265.342 164.585 266.039 167.444 267.575 169.868C265.389 168.722 262.878 168.346 260.451 168.803C258.4 169.21 256.537 170.275 255.147 171.835C253.757 173.395 252.915 175.366 252.75 177.447C252.585 179.529 253.105 181.607 254.231 183.366C255.357 185.126 257.028 186.47 258.99 187.195H258.032C256.774 187.19 255.528 187.433 254.365 187.91C253.202 188.386 252.144 189.086 251.252 189.971C250.36 190.855 249.652 191.907 249.167 193.065C248.682 194.223 248.431 195.465 248.427 196.72C248.427 197.975 248.675 199.217 249.157 200.377C249.638 201.536 250.343 202.589 251.233 203.476C252.122 204.363 253.178 205.067 254.34 205.547C255.502 206.026 256.747 206.273 258.004 206.272H267.595V247.566H281.407V206.272H290.998C292.255 206.273 293.5 206.026 294.661 205.546C295.823 205.067 296.878 204.363 297.767 203.476C298.656 202.589 299.361 201.535 299.841 200.376C300.322 199.217 300.569 197.974 300.568 196.72C300.569 194.23 299.595 191.838 297.854 190.055C296.113 188.272 293.743 187.238 291.249 187.174Z" fill="#E9CF81"/>
<path d="M263.803 188.016H258.032C257.92 188.016 257.808 187.994 257.704 187.951C257.601 187.908 257.506 187.844 257.427 187.765C257.309 187.646 257.229 187.494 257.197 187.33C257.164 187.165 257.182 186.995 257.247 186.841C257.311 186.686 257.42 186.554 257.56 186.461C257.7 186.369 257.864 186.319 258.032 186.32H263.803C263.971 186.319 264.135 186.369 264.275 186.461C264.414 186.554 264.524 186.686 264.588 186.841C264.653 186.995 264.67 187.165 264.638 187.33C264.606 187.494 264.526 187.646 264.408 187.765C264.329 187.844 264.234 187.908 264.13 187.951C264.027 187.994 263.915 188.016 263.803 188.016Z" fill="#666538"/>
<path d="M281.4 173.226C281.273 173.227 281.147 173.197 281.033 173.138C280.914 173.081 280.809 172.997 280.727 172.894C280.659 172.806 280.608 172.705 280.579 172.598C280.55 172.49 280.542 172.378 280.557 172.268C280.571 172.157 280.608 172.051 280.664 171.954C280.72 171.858 280.795 171.774 280.884 171.707L282.1 170.77L283.317 169.834C283.405 169.766 283.505 169.716 283.613 169.687C283.72 169.658 283.832 169.65 283.942 169.665C284.165 169.695 284.367 169.812 284.504 169.989C284.642 170.167 284.704 170.392 284.676 170.614C284.663 170.725 284.628 170.833 284.572 170.93C284.515 171.026 284.44 171.111 284.35 171.177L283.134 172.114L281.924 173.05C281.848 173.107 281.763 173.151 281.672 173.179C281.585 173.211 281.493 173.228 281.4 173.226Z" fill="#666538"/>
<path d="M467.43 188.999C467.826 196.109 467.234 203.239 465.67 210.186C464.118 217.171 461.376 223.837 457.561 229.894C454.992 233.9 451.904 237.549 448.378 240.748C444.857 243.96 440.887 246.643 436.592 248.713C432.043 250.945 427.018 252.038 421.951 251.895C417.152 251.766 412.326 250.64 407.126 249.032C403.67 247.919 400.026 247.506 396.407 247.817C392.967 248.129 389.645 249.23 386.701 251.033C384.013 252.742 381.773 255.068 380.169 257.817C378.551 260.559 377.303 263.501 376.458 266.569C376.172 267.566 375.098 272.641 374.106 277.464C373.114 282.288 372.23 286.874 372.339 286.894L364.461 285.49L356.576 284.045C356.576 284.045 356.95 281.229 357.65 277.328C358.42 272.867 359.432 268.451 360.682 264.099C361.764 260.373 363.154 256.743 364.835 253.245C367.067 248.661 369.949 244.423 373.392 240.66C375.617 238.217 378.167 236.09 380.971 234.337C383.756 232.572 386.83 231.307 390.052 230.599C393.721 229.931 397.485 229.972 401.138 230.722C404.809 231.4 408.459 232.404 412.013 233.205C415.681 234.049 419.465 234.278 423.208 233.883C426.955 233.495 430.575 232.31 433.825 230.409C443.973 224.372 448.099 213.924 449.404 202.513C450.709 191.102 449.255 178.769 448.249 168.871C447.753 164.02 447.175 158.695 446.482 153.003C445.788 147.311 445.007 141.158 444.089 134.686L452.653 133.268L461.218 131.85C462.233 138.024 463.157 144.38 463.991 150.92C464.825 157.46 465.545 164.174 466.152 171.062C466.424 174.12 466.664 177.145 466.873 180.139C467.081 183.133 467.267 186.087 467.43 188.999Z" fill="#BAB653"/>
<path d="M449.88 197.133C449.799 194.42 449.715 191.729 449.629 189.06C449.543 186.392 449.456 183.701 449.37 180.987C449.37 180.709 449.37 180.485 449.323 180.309C449.275 180.132 449.323 179.942 449.323 179.78C449.323 179.386 449.262 178.85 449.194 178.09C449.126 177.331 449.044 176.347 448.915 175.044C448.371 169.617 447.855 164.828 447.474 161.435C447.093 158.043 446.842 156.008 446.842 156.008C446.488 153.111 446.087 149.862 445.639 146.3C445.19 142.738 444.68 138.838 444.123 134.679L452.687 133.261L461.252 131.843C462.054 136.368 462.74 140.561 463.325 144.353C463.909 148.145 464.399 151.544 464.807 154.489C464.888 155.106 465.683 160.994 466.417 168.688C467.282 176.999 467.699 185.351 467.668 193.707C467.668 195.546 467.546 197.486 467.369 199.555C467.192 201.624 466.92 203.809 466.513 206.149C466.247 207.656 465.969 209.033 465.683 210.254C465.398 211.475 465.133 212.547 464.888 213.436L457.411 205.295L449.88 197.133Z" fill="#666538"/>
<path d="M521.8 231.217C521.059 229.231 519.908 227.422 518.421 225.91C516.933 224.397 515.144 223.214 513.168 222.438C509.13 220.873 504.672 220.757 500.558 222.111C496.443 223.465 492.929 226.204 490.615 229.86C489.575 228.845 488.437 227.936 487.217 227.146C484.906 225.641 482.31 224.627 479.589 224.167C476.869 223.707 474.083 223.811 471.404 224.473C468.726 225.135 466.213 226.34 464.022 228.014C461.831 229.688 460.008 231.794 458.669 234.202C458.376 234.717 458.105 235.253 457.853 235.796C454.313 233.709 450.322 232.502 446.216 232.275C440.563 231.855 434.936 233.385 430.277 236.61C426.083 239.636 423.337 243.998 423.031 248.977C422.726 253.957 424.928 258.618 428.721 262.125C432.996 265.832 438.378 268.028 444.031 268.372C449.684 268.715 455.293 267.187 459.987 264.025C460.998 263.295 461.938 262.473 462.795 261.569C463.821 262.557 464.944 263.441 466.146 264.208C468.456 265.714 471.053 266.729 473.774 267.188C476.495 267.648 479.282 267.544 481.96 266.881C484.639 266.219 487.152 265.012 489.343 263.337C491.534 261.662 493.355 259.554 494.693 257.145C495.682 255.4 496.427 253.529 496.909 251.582C497.181 251.711 497.453 251.833 497.738 251.949C501.966 253.594 506.65 253.647 510.914 252.098C515.178 250.549 518.731 247.503 520.91 243.53C521.92 241.656 522.522 239.591 522.676 237.468C522.829 235.346 522.531 233.215 521.8 231.217Z" fill="#BAB653"/>
<path d="M437.387 249.446H435.763C435.651 249.445 435.541 249.423 435.438 249.38C435.336 249.337 435.243 249.274 435.164 249.195C435.008 249.035 434.921 248.821 434.92 248.598C434.924 248.374 435.014 248.16 435.171 248.001C435.249 247.922 435.342 247.859 435.445 247.816C435.548 247.772 435.658 247.75 435.769 247.75C440.038 247.784 444.327 247.696 448.609 247.506C452.891 247.316 457.153 247.004 461.394 246.596C471.572 245.602 481.678 243.98 491.655 241.739C501.696 239.483 511.588 236.615 521.277 233.15C521.386 233.109 521.503 233.091 521.62 233.096C521.737 233.102 521.852 233.132 521.957 233.184C522.058 233.231 522.149 233.298 522.223 233.381C522.298 233.464 522.355 233.561 522.392 233.666C522.438 233.773 522.461 233.889 522.461 234.005C522.461 234.122 522.438 234.237 522.392 234.344C522.291 234.544 522.119 234.699 521.909 234.779C512.154 238.261 502.196 241.148 492.09 243.422C482.044 245.677 471.867 247.31 461.619 248.313C457.622 248.7 453.591 248.991 449.554 249.188C445.516 249.385 441.397 249.446 437.387 249.446Z" fill="#666538"/>
<path d="M410.926 150.927C408.676 154.186 407.47 158.05 407.468 162.008C407.466 165.966 408.668 169.832 410.915 173.093C413.162 176.354 416.348 178.858 420.052 180.272C423.756 181.687 427.803 181.946 431.657 181.014H431.712C432.435 184.905 434.325 188.484 437.13 191.28C439.936 194.075 443.526 195.954 447.425 196.67C451.324 197.385 455.348 196.903 458.967 195.286C462.585 193.669 465.626 190.994 467.689 187.615C470.957 189.854 474.828 191.05 478.792 191.046C482.755 191.041 486.624 189.837 489.887 187.591C493.15 185.345 495.653 182.164 497.066 178.468C498.479 174.771 498.735 170.734 497.8 166.89V166.842C501.698 166.12 505.284 164.234 508.084 161.434C510.885 158.634 512.768 155.051 513.485 151.16C514.202 147.268 513.718 143.251 512.099 139.64C510.479 136.028 507.799 132.993 504.413 130.934C506.656 127.673 507.855 123.808 507.85 119.852C507.846 115.896 506.639 112.035 504.389 108.778C502.139 105.521 498.951 103.023 495.248 101.613C491.545 100.203 487.5 99.9474 483.648 100.881H483.601C482.879 96.9887 480.991 93.4071 478.185 90.6101C475.379 87.8132 471.788 85.9328 467.887 85.2179C463.987 84.503 459.961 84.9873 456.342 86.6067C452.724 88.2261 449.683 90.9043 447.624 94.2866C444.356 92.0479 440.484 90.8517 436.52 90.8561C432.557 90.8605 428.688 92.0652 425.425 94.3111C422.162 96.557 419.659 99.7382 418.246 103.434C416.833 107.131 416.577 111.168 417.512 115.012V115.059C413.615 115.783 410.03 117.669 407.23 120.47C404.43 123.271 402.548 126.854 401.832 130.745C401.116 134.636 401.6 138.653 403.22 142.264C404.84 145.875 407.52 148.91 410.906 150.968L410.926 150.927Z" fill="#DEB8FC"/>
<path d="M436.096 141.422C435.979 146.363 437.583 151.191 440.634 155.085C443.684 158.978 447.992 161.695 452.825 162.773C457.657 163.851 462.715 163.223 467.136 160.997C471.556 158.771 475.067 155.084 477.07 150.564C479.072 146.044 479.443 140.97 478.118 136.208C476.793 131.446 473.855 127.29 469.804 124.448C465.753 121.605 460.84 120.253 455.902 120.62C450.964 120.988 446.307 123.053 442.723 126.463C440.685 128.398 439.05 130.715 437.913 133.283C436.776 135.85 436.158 138.616 436.096 141.422Z" fill="#F4ECE5"/>
<path d="M355.299 251.671C353.965 248.388 353.886 244.731 355.074 241.393C356.173 238.221 358.458 235.596 361.45 234.066C363.96 232.848 366.798 232.474 369.539 233.001C372.408 233.541 375.046 234.937 377.104 237.004C378.454 233.042 380.69 229.439 383.643 226.468C386.606 223.496 390.222 221.326 394.015 220.796C398.344 220.226 402.741 221.106 406.515 223.3C408.465 224.386 410.24 225.758 411.783 227.37C414.908 230.686 417.165 234.719 418.355 239.113C419.476 243.165 419.341 247.46 417.968 251.433C417.067 253.838 415.897 256.135 414.481 258.278C413.448 259.97 412.178 261.505 410.709 262.837C415.695 263.985 420.085 266.921 423.045 271.087C425.867 274.986 427.063 279.826 426.383 284.587C425.741 288.479 423.858 292.06 421.013 294.797C418.048 297.68 414.286 299.613 410.212 300.347L382.766 275.992L355.299 251.671Z" fill="#666538"/>
<path d="M444.347 403.818C444.343 444.689 430.139 484.294 404.158 515.885C378.176 547.476 342.023 569.097 301.86 577.066C261.696 585.035 220.007 578.857 183.895 559.586C147.783 540.315 119.484 509.142 103.818 471.38C88.1524 433.618 86.0902 391.603 97.9827 352.493C109.875 313.384 134.987 279.6 169.038 256.898C203.09 234.196 243.975 223.981 284.726 227.994C325.478 232.006 363.575 249.997 392.526 278.902C408.981 295.291 422.03 314.763 430.923 336.2C439.816 357.637 444.378 380.616 444.347 403.818Z" fill="#353519"/>
<path d="M154.335 285.537C154.171 285.535 154.01 285.485 153.873 285.395C153.727 285.304 153.615 285.168 153.553 285.008L144.303 262.743L135.052 240.47C134.967 240.264 134.967 240.032 135.052 239.826C135.094 239.722 135.156 239.627 135.236 239.548C135.315 239.469 135.41 239.406 135.514 239.365C135.721 239.28 135.953 239.28 136.16 239.365C136.264 239.406 136.358 239.469 136.438 239.548C136.517 239.627 136.58 239.722 136.622 239.826L145.873 262.091L155.124 284.363C155.17 284.47 155.195 284.586 155.195 284.703C155.195 284.819 155.17 284.935 155.124 285.042C155.082 285.146 155.019 285.24 154.94 285.319C154.86 285.399 154.766 285.461 154.661 285.503C154.609 285.525 154.554 285.541 154.498 285.551L154.335 285.537Z" fill="#666538"/>
<path d="M142.909 210.647C145.828 213.559 147.645 217.39 148.051 221.489C148.456 225.588 147.425 229.7 145.134 233.125C142.842 236.55 139.431 239.076 135.482 240.273C131.534 241.469 127.292 241.262 123.479 239.686C119.666 238.111 116.519 235.264 114.573 231.632C112.627 228 112.004 223.807 112.808 219.768C113.613 215.728 115.796 212.092 118.986 209.479C122.175 206.866 126.174 205.437 130.301 205.437C132.643 205.434 134.962 205.893 137.126 206.787C139.29 207.681 141.255 208.993 142.909 210.647Z" fill="#F4ECE5"/>
<path d="M116.7 231.217C116.027 231.219 115.361 231.085 114.742 230.823C114.105 230.553 113.529 230.156 113.05 229.657C112.894 229.494 112.809 229.277 112.812 229.053C112.818 228.829 112.914 228.617 113.077 228.463C113.237 228.305 113.453 228.216 113.678 228.216C113.903 228.216 114.12 228.305 114.28 228.463C114.755 228.965 115.375 229.306 116.054 229.439C116.723 229.572 117.416 229.494 118.039 229.216C118.634 228.94 119.132 228.49 119.466 227.927C119.808 227.354 119.974 226.693 119.942 226.027C119.93 225.836 119.965 225.645 120.044 225.471C120.123 225.293 120.245 225.137 120.397 225.016C120.549 224.898 120.726 224.816 120.915 224.778C121.104 224.741 121.299 224.748 121.485 224.799C122.264 225.02 123.096 224.97 123.843 224.657C124.499 224.404 125.035 223.916 125.347 223.288C125.659 222.66 125.724 221.938 125.529 221.265C125.338 220.595 124.958 219.994 124.435 219.535C124.35 219.463 124.282 219.375 124.233 219.276C124.183 219.177 124.155 219.068 124.149 218.958C124.135 218.734 124.208 218.513 124.353 218.341C124.427 218.257 124.516 218.189 124.617 218.14C124.717 218.091 124.826 218.062 124.938 218.056C125.162 218.042 125.384 218.115 125.556 218.259C126.349 218.955 126.915 219.872 127.181 220.892C127.462 221.895 127.382 222.965 126.953 223.914C126.524 224.864 125.775 225.634 124.836 226.088C123.847 226.591 122.724 226.769 121.628 226.597C121.563 227.491 121.263 228.352 120.758 229.093C120.246 229.834 119.54 230.42 118.718 230.79C118.397 230.939 118.059 231.05 117.712 231.122C117.379 231.188 117.04 231.22 116.7 231.217Z" fill="#DEB8FC"/>
<path d="M346.081 271.121H346.006C345.896 271.113 345.787 271.083 345.688 271.033C345.589 270.983 345.501 270.914 345.429 270.829C345.286 270.656 345.215 270.435 345.232 270.212L349.14 222.581L353.055 174.949C353.064 174.838 353.095 174.73 353.147 174.631C353.198 174.532 353.269 174.444 353.354 174.373C353.438 174.3 353.537 174.245 353.643 174.211C353.749 174.177 353.862 174.165 353.973 174.176C354.196 174.195 354.403 174.3 354.55 174.468C354.695 174.642 354.765 174.866 354.748 175.092L350.839 222.716L346.924 270.347C346.906 270.56 346.809 270.759 346.652 270.904C346.497 271.047 346.292 271.124 346.081 271.121Z" fill="#666538"/>
<path d="M346.075 271.121H345.912C345.857 271.109 345.805 271.091 345.755 271.067C345.652 271.025 345.558 270.963 345.479 270.885C345.399 270.807 345.336 270.715 345.293 270.612C345.247 270.505 345.224 270.389 345.224 270.273C345.224 270.156 345.247 270.041 345.293 269.934L354.53 247.661L363.768 225.382C363.809 225.28 363.871 225.187 363.949 225.109C364.027 225.031 364.12 224.97 364.223 224.928C364.329 224.879 364.445 224.853 364.563 224.853C364.68 224.853 364.796 224.879 364.903 224.928C365.006 224.97 365.101 225.031 365.18 225.11C365.259 225.188 365.323 225.281 365.366 225.384C365.409 225.487 365.431 225.598 365.43 225.709C365.43 225.821 365.408 225.931 365.365 226.034L356.128 248.306L346.89 270.585C346.824 270.741 346.713 270.873 346.571 270.965C346.427 271.069 346.253 271.124 346.075 271.121Z" fill="#666538"/>
<path d="M390.487 209.854C390.503 213.973 389.087 217.97 386.48 221.163C383.874 224.357 380.238 226.55 376.194 227.368C372.149 228.186 367.945 227.578 364.299 225.649C360.652 223.72 357.789 220.589 356.197 216.788C354.605 212.988 354.382 208.754 355.567 204.809C356.753 200.863 359.272 197.45 362.696 195.151C366.12 192.851 370.238 191.809 374.346 192.2C378.454 192.591 382.299 194.392 385.226 197.296C386.889 198.94 388.209 200.896 389.112 203.051C390.015 205.206 390.482 207.518 390.487 209.854Z" fill="#DEB8FC"/>
<path d="M119.282 321.038C111.731 319.77 105.729 316.133 101.828 311.31C99.8983 308.978 98.475 306.273 97.6478 303.364C96.8206 300.455 96.6075 297.406 97.0219 294.411C97.7655 289.856 99.5698 285.538 102.29 281.806C105.226 277.776 109.304 274.343 114.436 272.817C118.541 271.59 122.94 271.781 126.922 273.36C129.016 274.164 130.966 275.298 132.7 276.718C134.361 273.311 137.118 270.557 140.53 268.896C143.657 267.41 147.001 267.118 149.706 268.217C151.765 269.121 153.414 270.755 154.335 272.803C155.379 275.12 155.726 277.689 155.334 280.198L137.288 300.605L119.282 321.038Z" fill="#666538"/>
<path d="M368.213 208.266C367.42 208.258 366.64 208.066 365.936 207.703C365.208 207.325 364.577 206.784 364.094 206.122C363.413 206.707 362.59 207.103 361.708 207.269C360.761 207.45 359.781 207.348 358.892 206.975C358.003 206.602 357.245 205.975 356.712 205.173C356.128 204.308 355.826 203.284 355.849 202.242C355.855 202.019 355.948 201.808 356.107 201.652C356.185 201.575 356.278 201.515 356.379 201.474C356.481 201.433 356.589 201.413 356.698 201.414C356.922 201.419 357.134 201.512 357.29 201.672C357.368 201.751 357.43 201.846 357.471 201.949C357.512 202.053 357.531 202.164 357.528 202.276C357.513 202.967 357.709 203.646 358.092 204.223C358.458 204.786 358.993 205.22 359.62 205.464C360.246 205.707 360.934 205.748 361.586 205.58C362.246 205.417 362.843 205.06 363.298 204.555C363.427 204.411 363.588 204.3 363.767 204.23C363.95 204.163 364.145 204.139 364.338 204.162C364.531 204.18 364.716 204.246 364.877 204.352C365.038 204.459 365.17 204.603 365.263 204.772C365.659 205.478 366.282 206.029 367.03 206.339C367.732 206.634 368.52 206.648 369.232 206.38C369.835 206.125 370.335 205.676 370.653 205.105C370.993 204.497 371.148 203.804 371.102 203.11C371.087 202.886 371.161 202.666 371.309 202.497C371.457 202.327 371.666 202.224 371.89 202.208C372.116 202.194 372.338 202.269 372.509 202.418C372.593 202.492 372.661 202.581 372.71 202.681C372.76 202.781 372.788 202.89 372.794 203.002C372.875 204.049 372.638 205.096 372.114 206.007C371.609 206.879 370.83 207.561 369.898 207.947C369.638 208.055 369.367 208.135 369.09 208.185C368.801 208.242 368.507 208.27 368.213 208.266Z" fill="#666538"/>
<path d="M385.049 147.521C385.063 142.399 383.652 137.374 380.974 133.004C378.296 128.635 374.456 125.093 369.881 122.772C365.305 120.452 360.175 119.444 355.06 119.861C349.945 120.278 345.046 122.103 340.909 125.134C338.888 126.767 337.084 128.65 335.539 130.738C332.925 134.232 331.173 138.292 330.428 142.589C329.102 150.405 331.536 157.06 334.397 161.843C336.156 164.82 338.351 167.518 340.909 169.848C342.018 170.66 343.185 171.387 344.403 172.026C347.192 173.487 350.21 174.464 353.327 174.916C354.642 175.101 355.969 175.194 357.297 175.194C364.652 175.194 371.707 172.279 376.911 167.09C382.115 161.902 385.042 154.863 385.049 147.521Z" fill="#DEB8FC"/>
<path d="M377.076 150.656C375.239 150.633 373.457 150.03 371.985 148.933C370.436 147.801 369.265 146.229 368.627 144.421C366.795 145.329 364.745 145.712 362.707 145.527C360.781 145.354 358.96 144.575 357.507 143.302C356.271 142.182 355.374 140.739 354.918 139.136C354.621 138.143 354.468 137.113 354.462 136.077C354.467 135.853 354.557 135.639 354.714 135.48C354.792 135.4 354.885 135.337 354.988 135.294C355.09 135.251 355.201 135.229 355.312 135.229C355.423 135.228 355.534 135.25 355.637 135.293C355.739 135.336 355.832 135.4 355.91 135.48C355.99 135.558 356.053 135.652 356.096 135.756C356.138 135.86 356.158 135.971 356.155 136.083C356.16 136.942 356.286 137.796 356.529 138.621C356.897 139.925 357.625 141.1 358.629 142.013C359.874 143.093 361.441 143.732 363.088 143.831C364.854 143.947 366.617 143.561 368.172 142.718C368.35 142.624 368.546 142.57 368.747 142.561C368.948 142.551 369.149 142.587 369.334 142.664C369.521 142.743 369.688 142.861 369.824 143.01C369.962 143.157 370.064 143.333 370.123 143.526C370.662 145.298 371.817 146.82 373.379 147.82C374.102 148.303 374.914 148.639 375.768 148.807C376.622 148.974 377.501 148.971 378.354 148.797C379.766 148.461 381.025 147.664 381.929 146.531C382.9 145.339 383.496 143.888 383.642 142.359C383.652 142.248 383.684 142.14 383.737 142.042C383.789 141.945 383.861 141.858 383.948 141.789C384.078 141.691 384.235 141.632 384.397 141.62C384.56 141.608 384.723 141.643 384.867 141.721C385.01 141.799 385.128 141.917 385.206 142.06C385.285 142.203 385.32 142.366 385.308 142.528C385.12 144.409 384.377 146.192 383.173 147.65C382.031 149.049 380.459 150.033 378.701 150.452C378.422 150.513 378.15 150.554 377.872 150.588C377.593 150.622 377.355 150.656 377.076 150.656Z" fill="#666538"/>
<path d="M143.752 435.181C143.579 433.383 143.12 431.624 142.393 429.971C141.713 428.288 140.87 426.646 140.157 424.978C138.596 421.407 137.661 417.595 137.39 413.709C137.104 409.878 137.76 406.036 139.3 402.515C141.142 398.721 144.067 395.556 147.708 393.418C151.331 391.308 155.382 390.575 158.692 392.563C162.349 394.761 166.686 395.134 170.845 394.198C175.074 393.218 178.933 391.05 181.966 387.95C184.881 384.861 187.177 381.243 188.729 377.292C190.311 373.301 191.519 369.172 192.338 364.959C192.708 362.874 193.32 360.838 194.16 358.894C195.05 357.028 196.321 355.502 198.238 354.783C199.151 354.471 200.115 354.333 201.079 354.375C202.056 354.416 203.03 354.518 203.995 354.681L209.168 355.447L214.333 356.221C216.01 356.479 217.726 356.284 219.302 355.658C220.878 355.032 222.258 353.997 223.299 352.659C224.357 351.341 225.039 349.763 225.275 348.09C225.51 346.418 225.29 344.713 224.638 343.155C223.128 339.647 221.231 336.318 218.983 333.229C216.724 330.106 214.292 327.111 211.696 324.261C207.421 319.512 202.86 314.621 199.271 309.336C195.682 304.051 192.97 298.352 192.399 291.989C192.066 288.217 192.494 284.316 192.603 280.503C192.712 276.691 192.508 272.953 190.89 269.527C189.828 267.427 188.44 265.509 186.778 263.842C185.153 262.119 183.379 260.497 181.782 258.754C180.822 257.719 179.956 256.602 179.192 255.416C178.425 254.244 177.813 252.979 177.371 251.651C140.988 273.096 113.486 306.816 99.829 346.724C86.1716 386.633 87.259 430.099 102.895 469.278C108.039 467.107 113.057 464.647 117.923 461.91C122.797 459.176 127.511 456.166 132.041 452.894C135.172 450.739 137.972 448.141 140.354 445.181C142.603 442.202 144.024 438.871 143.752 435.181Z" fill="#BAB653"/>
<path d="M283.773 309.397C285.737 309.851 287.722 310.245 289.713 310.57C291.705 310.896 293.71 311.167 295.722 311.371C295.069 317.594 294.419 323.815 293.771 330.034C293.123 336.253 292.475 342.476 291.827 348.704C291.766 349.231 291.766 349.764 291.827 350.291C291.887 350.816 292.02 351.33 292.221 351.818C293.288 354.355 295.579 354.884 298.142 355.088C300.704 355.291 303.539 355.176 305.686 356.411C307.1 363.195 308.854 369.904 310.58 376.627C312.307 383.35 314.02 390.073 315.338 396.864C315.509 397.744 315.828 398.588 316.283 399.361C316.739 400.129 317.348 400.796 318.071 401.321C320.321 402.949 322.584 402.583 324.63 401.321C326.676 400.059 328.484 397.834 329.83 395.792C332.385 391.898 334.943 388.002 337.504 384.103L345.184 372.421C345.864 371.41 346.544 370.386 347.271 369.45C348.002 368.497 348.862 367.65 349.827 366.933C351.975 365.366 354.585 364.748 357.229 364.158C359.873 363.568 362.51 362.984 364.706 361.505C366.83 360.011 368.452 357.911 369.362 355.481C370.322 352.995 370.92 350.383 371.136 347.727C371.394 345.122 371.496 342.456 371.815 339.844C372.054 337.237 372.725 334.688 373.8 332.3C374.651 330.612 375.711 329.037 376.954 327.612C378.171 326.16 379.51 324.79 380.808 323.406C387.458 316.287 393.202 308.376 397.909 299.852C398.773 298.291 399.609 296.697 400.452 295.103C401.294 293.508 402.137 291.914 403.014 290.354C389.459 274.227 373.139 260.635 354.816 250.212C336.094 239.56 315.57 232.432 294.267 229.182C289.111 236.667 284.298 244.378 279.83 252.315C275.362 260.253 271.284 268.373 267.595 276.677L267.541 276.799L267.487 276.914C266.081 280.09 265.397 283.536 265.482 287.006C265.566 290.476 266.419 293.885 267.978 296.988C269.536 300.091 271.763 302.812 274.498 304.956C277.234 307.1 280.41 308.614 283.8 309.39L283.773 309.397Z" fill="#BAB653"/>
<path d="M262.871 551.942C262.113 549.392 261.102 546.924 259.853 544.574C258.616 542.239 257.009 540.118 255.095 538.292C254.11 537.376 253.016 536.528 252.03 535.579C251.024 534.697 250.214 533.616 249.651 532.404C249.25 531.416 249.038 530.362 249.026 529.296C249.006 528.217 249.066 527.138 249.202 526.067C249.565 522.824 250.057 519.597 250.677 516.386C251.296 513.184 252.037 510.002 252.92 506.889C253.434 505.207 253.856 503.5 254.185 501.773C254.531 500.077 254.531 498.328 254.185 496.631C253.899 495.466 253.441 494.35 252.825 493.32C252.194 492.287 251.482 491.305 250.698 490.383C246.113 484.86 240.257 480.526 233.63 477.751C232.665 477.344 231.673 476.964 230.728 476.516C229.774 476.091 228.885 475.536 228.084 474.868C226.432 473.327 225.323 471.295 224.923 469.074C224.487 466.774 224.298 464.434 224.359 462.093C224.359 455.635 224.359 449.174 224.359 442.711C224.359 436.248 224.359 429.79 224.359 423.336C224.4 421.021 224.311 418.707 224.094 416.402C223.889 414.121 223.31 411.889 222.381 409.795C221.397 407.669 219.856 405.848 217.922 404.523C216.062 403.197 213.764 402.632 211.499 402.943C208.732 403.39 206.625 405.127 204.974 407.407C203.359 409.8 202.067 412.396 201.133 415.127L193.201 436.409L185.269 457.69C184.909 458.647 184.548 459.617 184.106 460.546C183.685 461.477 183.146 462.35 182.502 463.145C180.001 466.143 176.283 467.018 172.307 467.561C168.33 468.104 164.103 468.321 160.575 469.997C157.934 471.332 155.675 473.314 154.009 475.756C152.296 478.242 150.845 480.897 149.679 483.68C146.767 490.178 144.332 496.878 142.393 503.727C140.484 510.576 139.069 517.552 138.158 524.602C154.499 542.056 174.226 556.01 196.141 565.614C218.055 575.219 241.698 580.273 265.631 580.469C265.893 575.658 265.839 570.836 265.468 566.032C265.109 561.256 264.238 556.533 262.871 551.942Z" fill="#BAB653"/>
<path d="M318.94 476.421C316.972 478.257 315.559 480.608 314.862 483.205C314.131 485.869 313.644 488.594 313.408 491.346L311.267 511.02L309.125 530.694C308.974 532.08 309.179 533.481 309.722 534.765C310.264 536.05 311.126 537.175 312.225 538.034C313.304 538.903 314.595 539.467 315.966 539.67C317.337 539.873 318.737 539.706 320.021 539.188C320.319 539.066 320.609 538.928 320.891 538.774C321.176 538.615 321.451 538.438 321.714 538.245C322.709 537.47 323.571 536.537 324.263 535.484C324.997 534.446 325.67 533.347 326.458 532.356C329.374 528.693 333.52 526.78 338.068 525.477C342.615 524.175 347.583 523.442 352.07 522.207C360.686 519.796 368.424 514.958 374.357 508.273C376.443 505.957 378.21 503.374 379.611 500.593C381.01 497.846 381.847 494.847 382.072 491.774C382.293 488.263 381.462 484.765 379.686 481.726C378.834 480.214 377.691 478.885 376.323 477.815C374.955 476.745 373.388 475.956 371.713 475.492C370.913 475.28 370.173 474.885 369.552 474.339C368.924 473.794 368.455 473.091 368.192 472.303C368.009 471.816 367.951 471.291 368.023 470.775C368.095 470.26 368.296 469.77 368.607 469.352C369.239 468.567 369.986 467.881 370.823 467.317C375.662 463.718 379.632 459.081 382.439 453.749C382.77 453.149 383.045 452.52 383.261 451.87C383.553 451.078 383.606 450.219 383.414 449.398C383.222 448.577 382.793 447.83 382.181 447.25C381.457 446.502 380.642 445.848 379.754 445.303C373.349 441.192 366.128 438.514 358.588 437.453C357.767 437.325 356.938 437.257 356.107 437.25C354.844 437.216 353.601 437.57 352.546 438.264C351.491 438.958 350.674 439.959 350.207 441.13C349.459 442.738 348.911 444.43 348.576 446.171C348.059 448.518 347.284 455.486 346.156 462.127C345.028 468.769 343.546 475.085 341.602 476.109C340.576 476.659 338.401 476.109 336.164 475.329C333.928 474.549 331.624 473.674 330.339 473.552C328.329 473.324 326.296 473.404 324.31 473.789C322.321 474.185 320.47 475.093 318.94 476.421Z" fill="#BAB653"/>
<path d="M385.939 381.478C385.541 382.544 385.312 383.665 385.26 384.802C385.193 385.946 385.218 387.094 385.334 388.235C385.487 390.252 385.929 392.238 386.646 394.13C387.275 395.982 388.477 397.587 390.078 398.714C391.68 399.84 393.598 400.43 395.557 400.399C397.53 400.435 399.498 400.179 401.396 399.639C402.949 399.25 404.445 398.664 405.848 397.895C407.219 397.145 408.368 396.048 409.179 394.714C409.673 393.855 410.011 392.915 410.178 391.939C410.348 390.956 410.409 389.957 410.361 388.961C410.326 387.745 410.146 386.538 409.824 385.365C409.509 384.196 409.004 383.087 408.329 382.082C406.147 378.88 401.43 376.532 396.815 376.084C392.199 375.637 387.693 377.075 385.939 381.478Z" fill="#BAB653"/>
<path d="M88.6549 50.7596C88.6352 51.4342 88.4586 52.0949 88.1389 52.6895C87.8191 53.2842 87.3652 53.7964 86.8129 54.1856C85.5146 55.1077 83.9609 55.6031 82.3676 55.6031C80.7742 55.6031 79.2204 55.1077 77.9222 54.1856C77.3558 53.8114 76.891 53.303 76.5695 52.7057C76.248 52.1085 76.0797 51.441 76.0797 50.763C76.0797 50.085 76.248 49.4176 76.5695 48.8204C76.891 48.2231 77.3558 47.7147 77.9222 47.3405C79.2185 46.4136 80.773 45.9152 82.3676 45.9152C83.9621 45.9152 85.5166 46.4136 86.8129 47.3405C87.365 47.7283 87.819 48.2392 88.1388 48.8327C88.4585 49.4263 88.6352 50.086 88.6549 50.7596Z" fill="#AD4D4D"/>
<path d="M98.0142 57.4964C98.0027 57.9094 97.8947 58.314 97.6988 58.6779C97.5029 59.0419 97.2246 59.3551 96.8859 59.5927C96.0911 60.1546 95.1411 60.4564 94.1671 60.4564C93.1931 60.4564 92.2431 60.1546 91.4482 59.5927C91.1019 59.3638 90.8178 59.0529 90.6212 58.6877C90.4247 58.3225 90.3218 57.9144 90.3218 57.4998C90.3218 57.0852 90.4247 56.6771 90.6212 56.3119C90.8178 55.9467 91.1019 55.6358 91.4482 55.4069C92.2411 54.8402 93.1919 54.5354 94.1671 54.5354C95.1423 54.5354 96.093 54.8402 96.8859 55.4069C97.2244 55.643 97.5028 55.955 97.6987 56.3179C97.8947 56.6807 98.0027 57.0844 98.0142 57.4964Z" fill="#AD4D4D"/>
<path d="M157.604 63.887C157.559 64.3229 157.412 64.7422 157.176 65.1119C156.94 65.4816 156.621 65.7915 156.245 66.0172C155.367 66.5586 154.335 66.797 153.309 66.6956C152.273 66.6384 151.285 66.2453 150.495 65.5762C150.145 65.3082 149.867 64.9577 149.686 64.5561C149.505 64.1545 149.427 63.7144 149.459 63.2753C149.49 62.8362 149.631 62.4118 149.867 62.0402C150.104 61.6686 150.429 61.3614 150.814 61.1462C151.69 60.5989 152.72 60.349 153.75 60.4338C154.786 60.4929 155.775 60.8884 156.564 61.56C156.908 61.8393 157.182 62.1955 157.362 62.5997C157.543 63.0039 157.626 63.4449 157.604 63.887Z" fill="#AD4D4D"/>
<path d="M147.912 69.6941C147.881 69.9867 147.783 70.2682 147.625 70.5165C147.467 70.7648 147.254 70.9733 147.001 71.1256C146.407 71.4875 145.715 71.6559 145.021 71.6073C144.327 71.5586 143.665 71.2954 143.127 70.8542C142.891 70.6741 142.703 70.4383 142.581 70.1679C142.459 69.8975 142.405 69.601 142.426 69.305C142.447 69.0091 142.541 68.7229 142.701 68.4723C142.86 68.2217 143.079 68.0145 143.338 67.8692C143.932 67.5073 144.624 67.3389 145.318 67.3875C146.013 67.4362 146.675 67.6994 147.212 68.1406C147.441 68.3283 147.623 68.5662 147.744 68.8356C147.866 69.1051 147.923 69.3989 147.912 69.6941Z" fill="#AD4D4D"/>
<path d="M385.817 61.1393C385.63 61.7878 385.294 62.384 384.837 62.8809C384.379 63.3777 383.812 63.7616 383.18 64.0022C381.693 64.5758 380.064 64.6722 378.519 64.2783C376.974 63.8843 375.591 63.0195 374.561 61.8042C374.107 61.3009 373.783 60.6931 373.621 60.035C373.458 59.3769 373.461 58.6888 373.629 58.0321C373.797 57.3754 374.126 56.7703 374.585 56.2708C375.044 55.7714 375.62 55.393 376.261 55.1693C377.748 54.5937 379.378 54.4962 380.923 54.8903C382.468 55.2843 383.851 56.1504 384.879 57.3674C385.318 57.8807 385.631 58.4886 385.793 59.1431C385.956 59.7977 385.964 60.481 385.817 61.1393Z" fill="#AD4D4D"/>
<path d="M388.924 71.3427C388.804 71.7566 388.589 72.137 388.297 72.4538C388.004 72.7705 387.642 73.0149 387.238 73.1676C386.288 73.5333 385.248 73.5952 384.262 73.3448C383.275 73.0944 382.391 72.5441 381.732 71.7701C381.453 71.4407 381.254 71.0513 381.15 70.6324C381.046 70.2135 381.041 69.7763 381.134 69.3549C381.253 68.9406 381.467 68.5597 381.76 68.2428C382.053 67.9259 382.416 67.6818 382.82 67.53C383.765 67.144 384.812 67.082 385.797 67.3536C386.789 67.59 387.676 68.1425 388.325 68.9275C388.605 69.2569 388.804 69.6463 388.908 70.0652C389.012 70.4841 389.017 70.9213 388.924 71.3427Z" fill="#AD4D4D"/>
<path d="M171.301 495.247L167.461 507.533L163.62 519.826H171.301H178.975L175.135 507.533L171.301 495.247Z" fill="#666538"/>
<path d="M185.045 512.207L181.204 524.5L177.371 536.786H185.045H192.718L188.885 524.5L185.045 512.207Z" fill="#666538"/>
<path d="M198.938 495.247L195.097 507.533L191.257 519.826H198.938H206.611L202.771 507.533L198.938 495.247Z" fill="#666538"/>
<path d="M332.263 284.357L328.423 296.649L324.582 308.935H332.263H339.937L336.096 296.649L332.263 284.357Z" fill="#666538"/>
<path d="M346.006 302.178L342.166 314.465L338.333 326.757H346.006H353.68L349.847 314.465L346.006 302.178Z" fill="#666538"/>
<path d="M359.893 284.716L356.06 297.009L352.219 309.295H359.893H367.574L363.734 297.009L359.893 284.716Z" fill="#666538"/>
<path d="M199.882 442.969L196.926 452.426L193.976 461.883H199.882H205.789L202.832 452.426L199.882 442.969Z" fill="#666538"/>
<path d="M211.404 430.581L208.454 440.038L205.497 449.495H211.404H217.31L214.36 440.038L211.404 430.581Z" fill="#666538"/>
<path d="M333.303 495.722L330.353 505.179L327.396 514.636H333.303H339.209L336.259 505.179L333.303 495.722Z" fill="#666538"/>
<path d="M345.395 485.424L342.445 494.881L339.488 504.338H345.395H351.301L348.345 494.881L345.395 485.424Z" fill="#666538"/>
<path d="M153.241 291.846L150.053 302.043L146.865 312.246H153.241H159.61L156.429 302.043L153.241 291.846Z" fill="#666538"/>
<path d="M115.177 424.326L111.989 434.523L108.802 444.726H115.177H121.546L118.358 434.523L115.177 424.326Z" fill="#666538"/>
<path d="M165.564 277.796L162.376 288L159.195 298.203H165.564H171.933L168.752 288L165.564 277.796Z" fill="#666538"/>
<path d="M180.613 352.401C180.174 344.044 176.538 336.175 170.456 330.415C164.374 324.655 156.31 321.444 147.925 321.445H65.3473C57.0899 321.45 49.1392 324.569 43.0888 330.178C37.0383 335.786 33.3351 343.47 32.7212 351.689C28.4237 351.689 24.1682 352.534 20.1978 354.175C16.2274 355.817 12.62 358.223 9.58143 361.257C6.54289 364.29 4.1328 367.891 2.48881 371.854C0.844809 375.817 -0.000892021 380.065 7.06038e-07 384.354C6.13316e-07 388.644 0.846582 392.891 2.4914 396.854C4.13623 400.817 6.54707 404.417 9.58624 407.45C12.6254 410.483 16.2334 412.888 20.2041 414.529C24.1748 416.17 28.4305 417.014 32.7281 417.013H173.727C178.025 417.014 182.28 416.17 186.251 414.529C190.222 412.888 193.83 410.483 196.869 407.45C199.908 404.417 202.319 400.817 203.964 396.854C205.609 392.891 206.455 388.644 206.455 384.354C206.457 376.885 203.895 369.642 199.195 363.83C194.495 358.018 187.941 353.989 180.626 352.415L180.613 352.401Z" fill="#F4ECE5"/>
<path d="M485.15 450.608C485.184 450.194 485.204 449.78 485.225 449.36C485.245 448.939 485.225 448.518 485.225 448.091C485.225 439.429 481.777 431.122 475.641 424.998C469.505 418.873 461.182 415.432 452.504 415.432H340.277C331.601 415.438 323.282 418.88 317.148 425.004C311.013 431.128 307.566 439.432 307.562 448.091C307.564 456.754 311.013 465.061 317.15 471.187C323.287 477.312 331.611 480.755 340.29 480.756H373.718C373.718 480.858 373.718 480.967 373.718 481.068C373.718 481.17 373.718 481.272 373.718 481.38C373.718 490.042 377.166 498.349 383.302 504.474C389.439 510.598 397.761 514.039 406.44 514.039H474.18C478.477 514.04 482.733 513.196 486.704 511.555C490.674 509.914 494.282 507.509 497.321 504.476C500.36 501.443 502.771 497.843 504.416 493.88C506.061 489.917 506.908 485.67 506.908 481.38C506.905 474.639 504.813 468.062 500.919 462.553C497.025 457.044 491.519 452.872 485.157 450.608H485.15Z" fill="#F4ECE5"/>
</svg>
